<svg t="1640415188634" class="icon" viewBox="0 0 1024 1024" version="1.1" xmlns="http://www.w3.org/2000/svg" p-id="2309" width="200" height="200"><path d="M876.54197728 57.97953739c-22.86672403 1.3256072-93.1239051 3.64541977-156.42164843 4.97102696-87.15867275 1.98841078-115.32782555 3.64541977-115.32782554 6.62803595 0 2.31981259 0.99420539 8.94784853 1.98841079 14.58167908l2.31981257 10.27345573h26.8435456c26.51214381 0.33140179 26.8435456 0.33140179 17.89569706 5.96523236-5.30242877 2.98261618-9.27925033 6.62803595-9.27925031 7.62224133 0 1.3256072 6.62803595 10.27345573 14.91308088 20.21550965 8.28504494 9.94205392 14.91308089 19.22130427 14.9130809 20.54691145 0 0.99420539-17.23289347 1.98841078-38.11120672 1.98841079h-38.11120672v62.96634153h33.14017975V180.59820247h308.20367171v33.14017975h33.14017975v-62.96634153h-73.23979726l16.90149167-21.87251864c8.94784853-12.26186651 16.57008987-23.52952763 16.57008988-24.85513482 0-2.31981259-23.52952763-16.23868809-27.83775099-16.23868806-0.66280359 0-8.94784853 11.59906291-18.55850067 25.5179384l-17.23289346 25.51793841 7.29083954 5.96523236c7.29083955 5.96523235 5.96523235 5.96523235-40.09961749 5.96523235l-47.72185885-0.33140179 12.59326831-6.62803597c6.62803595-3.64541977 12.26186651-7.29083955 12.2618665-8.28504492 0-1.3256072-6.62803595-11.59906291-14.91308089-22.86672404l-14.58167909-20.87831324 23.86092942-1.98841078c13.2560719-0.99420539 54.68129659-2.65121438 92.46110151-3.97682158l68.60017209-1.98841077-1.65700898-10.60485753c-0.99420539-5.63383056-2.31981259-12.26186651-3.31401798-14.58167909-1.3256072-4.30822337-16.90149168-4.63962516-87.49007455-0.66280359z m-113.33941475 38.44260851c-5.30242877 2.65121438-9.27925033 5.63383056-9.27925034 6.29663415 0 0.99420539 6.62803595 10.60485751 14.9130809 21.87251864 8.28504494 11.26766112 14.91308089 21.54111683 14.91308088 23.19812582s-21.87251863 2.98261618-48.71606423 2.98261618H685.9859437l9.94205393-7.95364314 9.94205392-7.95364315-17.56429526-19.88410784-17.23289347-20.21550965 17.23289347-1.32560719c9.61065213-0.66280359 32.47737616-1.3256072 50.70447502-1.65700899 31.15176897-0.33140179 32.47737616 0 24.19233122 4.63962517zM57.97953739 77.86364524v13.2560719l57.33251096 0.66280359 57.66391277 0.9942054-5.30242876 23.19812582L162.37110361 139.17297778l-45.73344806 0.99420539-45.40204627 0.9942054v26.180742h41.42522469c30.48896537 0 41.42522469 0.99420539 41.4252247 3.97682157 0 2.31981259-2.65121438 15.90728628-5.63383056 29.82616178l-5.30242876 25.84934021H41.4094475v26.51214379h400.99617502v-26.18074201l-33.80298335-0.99420538-34.13438514-0.99420539-0.9942054-42.41943009-0.9942054-42.08802829h-89.47848533c-77.21661883 0-89.47848533-0.66280359-88.15287813-4.97102695 1.3256072-2.65121438 3.97682157-13.5874737 6.29663415-24.85513483l3.97682157-19.88410784H419.20749669V64.60757333H57.97953739v13.25607191z m281.69152789 119.30464711v29.82616178h-76.88521701c-42.41943008 0-79.2050296-1.3256072-81.856244-2.98261618-4.30822337-2.65121438-3.97682157-6.95943775 1.3256072-29.82616178l5.96523235-26.8435456H339.67106528v29.82616178z" fill="#D81E06" p-id="2310"></path><path d="M719.12612347 207.11034627l-5.63383057 16.57008988H588.22241343v29.82616177h54.6812966c30.15756357 0 54.68129659 0.66280359 54.68129658 1.65700899 0 4.30822337-11.93046471 24.52373301-26.8435456 46.72765345-15.57588448 22.53532223-58.98951997 66.9431631-82.18764578 84.50745838l-11.26766112 8.28504494 8.94784854 13.91887549c6.95943775 11.26766112 9.94205392 13.5874737 14.58167909 10.93625932 15.57588448-8.61644674 65.61755591-57.66391277 87.15867275-86.49586916l8.94784853-11.59906291 17.56429527 18.55850066c9.94205392 9.94205392 27.17494739 25.18653662 38.44260852 33.47158155 15.57588448 11.59906291 19.22130427 15.57588448 14.91308089 16.90149167-33.14017975 10.60485751-71.91419006 20.21550965-103.06595904 25.51793842-20.87831325 3.64541977-38.44260851 6.95943775-38.77401031 7.62224133-2.65121438 2.65121438 16.90149168 25.5179384 21.87251863 25.51793842 20.54691145 0 101.74035184-19.88410785 140.51436217-34.46578695l20.87831323-7.95364314 31.48317077 10.93625932c32.47737616 11.59906291 80.5306368 22.86672403 112.01380757 26.5121438l18.55850066 2.31981259 8.94784853-16.57008987 8.94784854-16.57008988-20.54691146-2.31981259c-34.46578693-3.64541977-82.51904758-11.93046471-101.74035184-17.89569706L849.03562809 387.72432592l22.53532222-14.58167908c12.26186651-7.95364315 31.81457257-23.52952763 43.41363548-34.13438515 19.88410785-18.55850066 21.20971504-20.87831325 21.20971504-34.46578694V289.96079565h-103.39736083c-57.00110917 0-105.71717342-1.3256072-108.03698598-2.98261618-3.64541977-1.98841078-2.98261618-5.63383056 2.98261617-17.89569707l7.62224135-15.57588448H985.90457047v-29.82616177H747.29527625l6.29663415-16.57008988 6.29663415-16.57008988h-35.12859053L719.12612347 207.11034627z m154.43323763 125.60128127c-9.61065213 8.61644674-27.83775099 21.20971504-40.09961749 28.16915278l-22.20392044 11.93046471-22.20392043-12.2618665c-12.26186651-6.95943775-29.82616178-19.55270605-39.43681391-28.16915279l-17.23289347-15.57588449h159.07286281l-17.89569707 15.90728629zM97.74775309 369.49722706v72.90839546h16.57008988c16.23868809 0 16.57008987-0.33140179 16.57008986-9.94205393v-9.94205392h228.66724031v9.94205392c0 9.61065213 0.33140179 9.94205392 16.57008988 9.94205393h16.57008987V296.58883161H97.74775309v72.90839545z m261.80742005-9.94205392v36.45419772H130.88793283v-72.90839545h228.66724031v36.45419773z m-44.07643908 240.92910681c-1.3256072 0.99420539-2.31981259 13.9188755-2.31981258 28.16915278v25.84934021h-109.36259318v88.48427995c0 123.28146868-7.95364315 170.34052393-36.78559953 217.73098098l-12.59326831 20.21550963 11.59906292 11.59906292 11.59906291 11.59906291 6.95943774-8.28504494c12.5932683-15.24448269 32.47737616-60.97793075 39.10541212-91.13549431 3.64541977-16.57008987 7.62224133-49.04746604 8.94784853-72.24559186l1.98841079-42.41943009 9.94205392 0.99420538c9.27925033 0.99420539 10.27345573 2.31981259 15.57588448 24.19233124 9.27925033 36.12279593 19.22130427 59.98372535 35.12859055 83.51325297 11.26766112 16.90149168 13.9188755 22.86672403 10.93625931 26.51214379-5.96523235 6.95943775-49.04746604 32.80877795-73.57119905 44.07643908l-22.53532223 10.27345573 10.27345572 12.9246701c5.96523235 7.29083955 11.59906291 13.2560719 12.59326832 13.25607189 5.96523235-0.33140179 64.62335052-33.80298335 81.19344039-46.06484985l18.55850066-14.25027729 21.20971504 15.2444827c19.88410785 14.2502773 70.91998467 40.7624211 72.90839546 38.1112067 0.66280359-0.66280359 5.96523235-7.62224133 11.59906291-14.91308089 5.96523235-7.62224133 10.60485751-14.58167909 10.60485752-15.24448269 0-0.99420539-6.29663415-3.64541977-13.9188755-5.96523235-17.56429527-4.97102697-53.6870912-23.19812583-68.26877029-34.13438514-9.61065213-7.29083955-10.27345573-8.61644674-5.30242877-12.5932683 9.27925033-7.62224133 31.48317076-42.41943008 42.7508319-67.27456491 14.2502773-30.48896537 22.53532223-63.29774333 19.88410784-77.21661882L422.19011287 760.55134815H342.98508325v-76.22241343h70.58858288l-2.31981258 23.19812581-1.98841079 23.19812584h29.49475999l1.65700898-17.56429527c0.99420539-9.27925033 2.65121438-26.51214381 3.64541977-38.11120672l1.98841079-20.54691144H342.98508325v-56.33830558h-12.5932683c-6.95943775 0-13.9188755 0.99420539-14.91308089 2.31981259zM313.15892148 722.44014143V760.55134815h-79.5364314v-76.22241343h79.5364314v38.11120671z m77.54802062 76.88521702c-6.29663415 26.18074201-25.18653662 62.63493973-45.07064447 87.49007456l-10.27345571 12.5932683-9.61065214-12.2618665c-14.2502773-17.56429527-27.83775099-46.06484987-35.45999233-73.23979726l-6.62803595-23.52952763h109.03119139l-1.98841079 8.94784853zM651.18875497 601.80988713c0 7.62224133-33.14017975 64.29194871-51.69868042 88.81568174l-18.22709887 23.52952763 9.27925034 11.59906291 9.27925033 11.93046471 5.96523235-7.62224135c5.96523235-7.29083955 6.29663415-4.97102697 4.63962517 88.48427995-1.3256072 102.73455724-2.98261618 114.00221835-20.21550966 148.79940709L581.59437748 984.24756148l10.93625932 8.94784854c5.63383056 4.97102697 11.59906291 9.27925033 12.9246701 9.27925033 3.64541977 0 18.22709886-33.47158155 23.86092942-54.6812966 2.65121438-10.93625932 5.96523235-29.16335819 7.29083955-40.4310193l2.31981258-20.87831325h35.45999235v76.22241344h26.51214379v-76.22241344h36.45419772v37.44840313c0 47.05905525-1.98841078 49.71026963-34.13438514 48.05326064-17.56429527-0.66280359-20.87831325 0-20.21550965 3.97682156 0.66280359 2.65121438 1.98841078 9.27925033 2.98261618 14.58167911l1.98841079 9.27925032 27.83775099-0.99420539c25.5179384-1.3256072 28.83195638-2.31981259 37.11700133-10.60485752l9.27925033-8.94784853 0.99420539-134.217728 0.99420538-134.217728H739.01023131c-13.5874737 0-24.85513482-0.66280359-24.85513481-1.98841079 0-0.99420539 5.96523235-10.60485751 13.25607189-21.20971504 10.60485751-15.57588448 13.2560719-22.53532223 13.25607191-34.46578694V637.93268306h-36.45419773c-19.88410785 0-36.45419773-0.66280359-36.45419774-1.65700898s2.98261618-7.62224133 6.62803597-14.9130809c8.28504494-16.23868809 8.28504494-15.57588448-2.31981259-17.89569706-5.30242877-1.3256072-11.93046471-2.98261618-14.91308089-3.97682157-3.64541977-0.99420539-5.96523235 0-5.96523235 2.31981258z m53.35568939 68.26877029c-1.65700898 3.31401797-8.28504494 13.2560719-14.25027729 22.53532223l-10.93625932 16.57008988-29.49475998 0.9942054-29.16335817 0.99420539 6.62803595-9.27925034c3.31401797-4.97102697 10.27345573-15.57588448 15.24448268-23.52952761l8.61644674-13.91887551h28.16915278c26.18074201 0 28.1691528 0.33140179 25.18653661 5.63383056zM674.3868808 760.55134815v26.5121438h-36.45419774v-53.0242876h36.45419774V760.55134815z m62.96634151 0v26.5121438h-36.45419772v-53.0242876h36.45419772V760.55134815z m-62.96634151 76.22241343v26.51214381h-36.45419774V810.26161778h36.45419774v26.5121438z m62.96634151 0v26.51214381h-36.45419772V810.26161778h36.45419772v26.5121438z m43.08223369-202.15509649v13.25607189h47.05905525l-2.31981258 15.57588449c-4.63962516 31.15176897-18.22709886 51.69868042-45.73344806 69.59437748l-12.59326831 7.95364315 10.27345573 12.92467009 10.60485752 13.25607191 10.27345572-7.29083955c17.56429527-12.5932683 37.77980492-34.46578693 45.40204626-48.71606423 3.64541977-7.62224133 8.61644674-24.85513482 10.93625932-38.44260851l3.97682157-24.85513483h75.22820803l-0.99420538 26.18074201c-1.98841078 37.44840311-5.63383056 41.0938229-43.08223369 39.43681391l-28.16915279-0.9942054 2.65121439 14.58167909c1.3256072 7.95364315 3.31401797 15.57588448 4.30822337 16.23868808 0.99420539 0.99420539 14.58167909 1.65700898 30.82036717 1.98841079 51.69868042 0.33140179 61.30933253-11.93046471 65.28615411-81.85624399l2.65121437-42.08802829H780.435456v13.25607191z" fill="#D81E06" p-id="2311"></path><path d="M48.03748347 654.50277294v13.25607189h26.8435456c23.86092942 0 26.51214381 0.66280359 24.8551348 5.63383056-0.99420539 3.31401797-3.97682157 15.57588448-6.95943774 27.5063492-7.62224133 29.82616178-25.5179384 74.89680624-42.75083189 108.6997896l-14.91308089 28.16915278 8.94784854 10.93625932c4.97102697 6.29663415 9.94205392 11.26766112 10.93625932 11.26766112 0.99420539 0 6.29663415-7.95364315 11.59906291-17.56429527l9.61065213-17.23289347 0.99420538 68.60017208 0.66280361 68.93157389h12.9246701c13.5874737 0 16.90149168-4.30822337 16.90149168-22.53532224 0-6.95943775 0.99420539-7.29083955 32.80877795-7.29083954 26.8435456 0 33.14017975-0.99420539 34.79718874-5.30242876 2.65121438-6.95943775 2.65121438-124.27567408 0-150.12501428l-2.31981259-20.21550965h-33.14017975c-29.82616178 0-32.80877795-0.66280359-31.15176896-5.96523236 0.99420539-2.98261618 6.62803595-23.19812583 12.9246701-44.40784086l10.93625932-39.10541212h54.68129659v-26.5121438H48.03748347v13.25607191z m99.42053925 190.55603358v61.30933254h-39.7682157v-122.61866509h39.7682157v61.30933255z m725.76993659-64.62335052v23.19812583h-14.5816791c-23.86092942 0-25.18653662-1.3256072-20.21550964-18.22709886l4.63962516-14.5816791-10.27345573-3.31401797c-5.63383056-1.98841078-11.93046471-3.64541977-14.25027728-3.64541977-1.98841078 0-7.29083955 10.93625932-11.26766112 23.86092942-4.30822337 13.2560719-12.5932683 35.79139413-18.55850066 49.71026962l-10.93625932 25.51793841 8.94784853 2.98261619c4.63962516 1.98841078 10.93625932 4.30822337 13.9188755 5.63383054 4.30822337 1.65700898 7.29083955-2.65121438 14.5816791-19.55270604l9.27925032-21.87251864h48.71606424v62.96634154H777.12143803v26.5121438h96.10652128v86.16446734h29.82616178v-86.16446734h82.85044938V893.11206717h-36.12279593c-19.88410785 0-38.44260851-0.99420539-41.42522469-1.9884108-4.30822337-1.65700898-5.30242877-7.62224133-5.30242876-31.48317077V830.14572563h72.90839544v-26.5121438h-31.15176896c-17.23289347 0-33.47158155-0.99420539-36.45419772-1.98841079-3.97682157-1.65700898-5.30242877-6.95943775-5.30242876-23.19812582V757.23733017h-29.82616178v23.19812583z" fill="#D81E06" p-id="2312"></path></svg>