<?xml version="1.0" standalone="no"?><!DOCTYPE svg PUBLIC "-//W3C//DTD SVG 1.1//EN" "http://www.w3.org/Graphics/SVG/1.1/DTD/svg11.dtd"><svg t="1632579839104" class="icon" viewBox="0 0 1024 1024" version="1.1" xmlns="http://www.w3.org/2000/svg" p-id="4638" xmlns:xlink="http://www.w3.org/1999/xlink" width="200" height="200"><defs><style type="text/css"></style></defs><path d="M0 184.32a81.92 81.92 0 0 1 81.92-81.92h189.57312a81.92 81.92 0 0 1 69.90848 39.19872L373.76 194.56H839.68a81.92 81.92 0 0 1 81.92 81.92v634.88H40.96a40.96 40.96 0 0 1-40.96-40.96V184.32z" fill="#40A9FF" p-id="4639"></path><path d="M210.95424 307.2h725.54496a81.92 81.92 0 0 1 80.66048 96.23552l-87.21408 491.52A81.92 81.92 0 0 1 849.28512 962.56H71.68l57.7536-581.5296A81.92 81.92 0 0 1 210.95424 307.2z" fill="#69C0FF" p-id="4640"></path><path d="M0 880.64a41.35936 41.35936 0 0 0 70.656 5.53984L81.92 870.4v92.16a81.92 81.92 0 0 1-81.92-81.92z" fill="#69C0FF" p-id="4641"></path><path d="M552.96 450.56L419.84 614.4h71.68v133.12h122.88V614.4h71.68L552.96 450.56zM491.52 768h122.88v40.96H491.52zM491.52 829.44h122.88v20.48H491.52z" fill="#91D5FF" p-id="4642"></path></svg>