<svg t="1643431660610" class="icon" viewBox="0 0 1024 1024" version="1.1" xmlns="http://www.w3.org/2000/svg" p-id="1745" width="200" height="200">
    <path d="M743.225806 14.864516H198.193548c-46.245161 0-82.580645 36.335484-82.580645 82.580645v825.806452c0 46.245161 36.335484 82.580645 82.580645 82.580645h644.129033c46.245161 0 82.580645-36.335484 82.580645-82.580645V199.845161L743.225806 14.864516z m-13.212903 450.890323c-1.651613 8.258065-4.954839 14.864516-8.258064 19.819355-3.303226 4.954839-6.606452 8.258065-9.909678 6.606451-3.303226 0-4.954839-21.470968-6.606451-24.774193-1.651613-3.303226-3.303226-8.258065-4.954839-18.167742-1.651613-13.212903-6.606452-24.774194-14.864516-29.729033-8.258065-6.606452-19.819355-11.56129-34.683871-14.864516-16.516129-3.303226-31.380645-9.909677-44.593549-19.819355-13.212903-9.909677-28.077419-18.167742-36.335483-28.077419-8.258065-8.258065-14.864516-9.909677-18.167742-8.258064-4.954839 1.651613-6.606452 6.606452-6.606452 11.56129v307.2c0 8.258065-1.651613 18.167742-4.954839 28.077419-3.303226 9.909677-4.954839 19.819355-13.212903 29.729033-8.258065 9.909677-19.819355 16.516129-34.683871 23.12258-14.864516 6.606452-33.032258 9.909677-52.851613 11.56129-21.470968 1.651613-41.290323-3.303226-59.458064-11.56129-18.167742-8.258065-31.380645-19.819355-41.290323-31.380645-9.909677-13.212903-14.864516-26.425806-14.864516-42.941935 0-14.864516 6.606452-29.729032 21.470968-42.941936 13.212903-13.212903 28.077419-23.122581 44.593548-28.077419 16.516129-4.954839 31.380645-8.258065 46.245161-8.258065 14.864516 0 37.987097 0 49.548388 3.303226 11.56129 3.303226 19.819355 4.954839 26.425806 6.606452v-150.296775-142.038709c0-9.909677 3.303226-18.167742 8.258065-24.774194 4.954839-6.606452 13.212903-9.909677 21.470967-11.56129 8.258065-1.651613 14.864516 0 19.819355 4.954839 4.954839 3.303226 0 9.909677 6.606452 16.516129 4.954839 6.606452 11.56129 14.864516 19.819355 24.774193s18.167742 18.167742 31.380645 26.425807c11.56129 8.258065 21.470968 13.212903 29.729032 18.167742 8.258065 3.303226 16.516129 6.606452 23.122581 9.909677 6.606452 3.303226 14.864516 6.606452 21.470967 11.56129 6.606452 4.954839 14.864516 11.56129 23.122581 21.470968 8.258065 9.909677 13.212903 18.167742 14.864516 28.077419 0 9.909677 0 19.819355-1.651613 28.07742z" fill="#00BECA" p-id="1746"></path>
    <path d="M743.225806 14.864516h-3.303225v132.129032c0 16.516129 8.258065 52.851613 57.806451 52.851613H924.903226l-13.212903-13.212903L743.225806 14.864516z" fill="#80DFE5" p-id="1747"></path>
</svg>
