<?xml version="1.0" standalone="no"?><!DOCTYPE svg PUBLIC "-//W3C//DTD SVG 1.1//EN" "http://www.w3.org/Graphics/SVG/1.1/DTD/svg11.dtd"><svg t="1632476871963" class="icon" viewBox="0 0 1024 1024" version="1.1" xmlns="http://www.w3.org/2000/svg" p-id="3260" xmlns:xlink="http://www.w3.org/1999/xlink" width="200" height="200"><defs><style type="text/css"></style></defs><path d="M1024 570.88v5.12c0 25.6-20.48 46.08-46.08 46.08-23.04 0-43.52-17.92-46.08-38.4v-2.56-2.56c0-25.6 20.48-46.08 46.08-46.08 23.04-2.56 43.52 15.36 46.08 38.4zM977.92 742.4c25.6 0 46.08 20.48 46.08 46.08s-20.48 46.08-46.08 46.08-46.08-20.48-46.08-46.08v-5.12c7.68-5.12 15.36-12.8 20.48-17.92 7.68-7.68 12.8-12.8 17.92-20.48 5.12-2.56 5.12-2.56 7.68-2.56z" fill="#2CA6E0" p-id="3261"></path><path d="M972.8 742.4c-5.12 7.68-12.8 15.36-17.92 20.48-7.68 7.68-12.8 12.8-20.48 17.92 2.56-20.48 17.92-35.84 38.4-38.4zM888.32 488.96c-56.32-56.32-148.48-58.88-207.36-2.56l130.56-130.56c51.2 5.12 99.84 28.16 140.8 69.12s64 92.16 69.12 145.92c-2.56-23.04-23.04-40.96-46.08-40.96-25.6 0-46.08 20.48-46.08 46.08v2.56c0-33.28-15.36-64-40.96-89.6zM616.96 424.96c35.84-35.84 84.48-58.88 130.56-66.56-2.56 10.24-2.56 17.92-5.12 28.16 0 2.56 0 2.56-2.56 5.12v2.56c0 2.56 0 2.56-2.56 5.12 0 2.56-2.56 2.56-2.56 5.12s-2.56 2.56-2.56 5.12l-15.36 30.72c-2.56 2.56-2.56 5.12-5.12 7.68 0 0 0 2.56-2.56 2.56-2.56 2.56-2.56 5.12-5.12 7.68-2.56 2.56-2.56 5.12-5.12 7.68 0 2.56-2.56 2.56-2.56 5.12l-5.12 5.12-5.12 5.12-7.68 7.68-2.56 2.56c-35.84 35.84-81.92 56.32-130.56 64 12.8-46.08 33.28-94.72 71.68-130.56z" fill="#2CA6E0" p-id="3262"></path><path d="M814.08 355.84L683.52 486.4l7.68-7.68 5.12-5.12 5.12-5.12c2.56-2.56 2.56-2.56 2.56-5.12 2.56-2.56 2.56-5.12 5.12-7.68 2.56-2.56 2.56-5.12 5.12-7.68 0 0 0-2.56 2.56-2.56 2.56-2.56 2.56-5.12 5.12-7.68l15.36-30.72c0-2.56 2.56-2.56 2.56-5.12s2.56-2.56 2.56-5.12 0-2.56 2.56-5.12v-2.56c0-2.56 0-2.56 2.56-5.12 2.56-10.24 5.12-17.92 5.12-28.16 17.92-2.56 38.4-2.56 61.44 0zM678.4 491.52l-130.56 130.56c-2.56-23.04-2.56-43.52 0-66.56 48.64-7.68 94.72-28.16 130.56-64 0 0 2.56 0 0 0 2.56-2.56 2.56 0 0 0zM747.52 358.4c-48.64 7.68-94.72 30.72-130.56 66.56l130.56-130.56c5.12 20.48 2.56 40.96 0 64z" fill="#2CA6E0" p-id="3263"></path><path d="M483.84 558.08l130.56-130.56 2.56-2.56c-35.84 35.84-58.88 84.48-66.56 130.56-23.04 5.12-46.08 5.12-66.56 2.56zM483.84 558.08l-7.68 7.68v-7.68h7.68z" fill="#2CA6E0" p-id="3264"></path><path d="M483.84 558.08c23.04 2.56 43.52 2.56 66.56 0-2.56 23.04-2.56 43.52 0 66.56L409.6 765.44c53.76-53.76 76.8-128 69.12-197.12l5.12-10.24zM614.4 424.96l-130.56 130.56h-7.68c-7.68-48.64-30.72-94.72-66.56-130.56 56.32 56.32 148.48 56.32 204.8 0z" fill="#2CA6E0" p-id="3265"></path><path d="M476.16 565.76c7.68 69.12-15.36 143.36-69.12 197.12s-128 76.8-197.12 69.12l130.56-130.56 2.56-2.56 2.56-2.56 130.56-130.56z" fill="#2CA6E0" p-id="3266"></path><path d="M407.04 424.96c35.84 35.84 58.88 84.48 66.56 130.56-48.64-7.68-94.72-30.72-130.56-66.56-35.84-35.84-58.88-84.48-66.56-130.56 48.64 7.68 94.72 28.16 130.56 66.56z" fill="#E50013" p-id="3267"></path><path d="M343.04 488.96c35.84 35.84 84.48 58.88 130.56 66.56v7.68l-130.56 130.56c58.88-53.76 56.32-145.92 0-204.8z" fill="#E50013" p-id="3268"></path><path d="M343.04 151.04c64-64 153.6-84.48 232.96-61.44 2.56 0 2.56 0 5.12 2.56h2.56c2.56 0 2.56 0 5.12 2.56 2.56 0 2.56 2.56 5.12 2.56s2.56 2.56 5.12 2.56l30.72 15.36c2.56 2.56 5.12 2.56 7.68 5.12 0 0 2.56 0 2.56 2.56 2.56 2.56 5.12 2.56 7.68 5.12 2.56 2.56 5.12 2.56 7.68 5.12 2.56 0 2.56 2.56 5.12 2.56l5.12 5.12 5.12 5.12 7.68 7.68c38.4 38.4 61.44 89.6 69.12 140.8l-130.56 130.56c56.32-58.88 56.32-151.04-2.56-207.36-58.88-58.88-151.04-58.88-209.92 0l-5.12 5.12c-2.56 2.56-7.68 7.68-10.24 12.8-2.56 2.56-5.12 5.12-5.12 10.24l-2.56 2.56c0 2.56-2.56 5.12-2.56 5.12s0 2.56-2.56 2.56c0 2.56-2.56 5.12-2.56 7.68 0 0 0 2.56-2.56 2.56 0 2.56-2.56 5.12-2.56 7.68-17.92 51.2-7.68 112.64 35.84 153.6-35.84-35.84-84.48-58.88-130.56-66.56-10.24-76.8 12.8-153.6 69.12-209.92zM192 360.96c25.6 0 46.08 20.48 46.08 46.08 0 20.48-12.8 38.4-30.72 43.52-2.56 0-5.12 0-5.12 2.56h-7.68c-25.6 0-46.08-20.48-46.08-46.08 0-20.48 15.36-38.4 33.28-43.52 2.56-2.56 7.68-2.56 10.24-2.56z" fill="#2CA6E0" p-id="3269"></path><path d="M343.04 488.96c-35.84-35.84-89.6-51.2-135.68-38.4 17.92-5.12 30.72-23.04 30.72-43.52 0-25.6-20.48-46.08-46.08-46.08-5.12 0-7.68 0-10.24 2.56 30.72-7.68 64-10.24 94.72-5.12 7.68 48.64 30.72 94.72 66.56 130.56z" fill="#E50013" p-id="3270"></path><path d="M135.68 698.88c56.32 56.32 148.48 58.88 207.36 2.56l-130.56 130.56c-51.2-5.12-99.84-28.16-140.8-69.12-92.16-92.16-92.16-243.2 0-337.92 30.72-30.72 71.68-53.76 110.08-64-20.48 5.12-33.28 23.04-33.28 43.52 0 25.6 20.48 46.08 46.08 46.08h7.68c-23.04 7.68-46.08 17.92-66.56 38.4C76.8 547.84 76.8 640 135.68 698.88z" fill="#2CA6E0" p-id="3271"></path></svg>