<?xml version="1.0" standalone="no"?><!DOCTYPE svg PUBLIC "-//W3C//DTD SVG 1.1//EN" "http://www.w3.org/Graphics/SVG/1.1/DTD/svg11.dtd"><svg t="1632576626261" class="icon" viewBox="0 0 1024 1024" version="1.1" xmlns="http://www.w3.org/2000/svg" p-id="2068" xmlns:xlink="http://www.w3.org/1999/xlink" width="200" height="200"><defs><style type="text/css"></style></defs><path d="M485.290667 1023.018667c-178.474667-8.96-341.589333-112.042667-424.917334-270.805334-89.472-164.608-79.829333-378.197333 31.232-531.370666C202.581333 57.088 405.205333-29.781333 609.322667 9.813333c195.541333 36.565333 356.309333 191.744 399.274666 380.202667 47.872 185.344-18.048 391.381333-167.466666 513.706667-97.664 83.328-225.92 126.122667-355.84 119.338666z m328.746666-343.466667a25119.445333 25119.445333 0 0 0-135.296-80.512c-38.528 63.274667-123.093333 95.914667-194.986666 71.04-86.357333-27.264-144.810667-127.445333-106.154667-219.050667 34.176-85.717333 119.04-115.498667 185.898667-105.130666a178.773333 178.773333 0 0 1 111.914666 71.210666c45.952-26.922667 90.794667-51.968 135.381334-79.146666-86.613333-133.034667-262.442667-183.210667-411.989334-117.504-133.546667 60.714667-208.64 199.68-187.221333 337.877333 23.04 153.514667 159.146667 276.736 329.216 273.237333a326.997333 326.997333 0 0 0 273.237333-152.021333z" p-id="2069" fill="#0055d1"></path></svg>