<svg viewBox="0 0 1024 1024"
    version="1.1"
    xmlns="http://www.w3.org/2000/svg">
    <path d="M900.482552 632.324451c70.879918 13.279985 87.358899 35.359959 79.198909 105.439879-15.999982 138.237841-99.358886 225.59674-254.716706 268.155691-268.476691 73.599915-540.953377-84.318903-602.233306-351.995595a460.634469 460.634469 0 0 1 30.559964-291.196664c10.879987-24.799971 38.239956-49.599943 9.919989-78.39891s-57.439934-13.279985-87.0399-4.159995c-9.278989 2.879997-18.398979 6.239993-33.758961 11.359987a102.878881 102.878881 0 0 1 40.479953-83.519904c41.919952-35.678959 95.998889-56.797935 143.997835-47.998944 72.959916 14.559983 114.558868-23.039973 163.997811-60.638931C480.008037 32.011143 579.525922-8.78781 695.524789 1.612178c75.199913 6.719992 124.638856 40.319954 145.118832 111.998871 8.79999 30.399965 23.359973 39.199955 52.31894 37.919956a48.959944 48.959944 0 0 1 54.559937 40.479954c5.759993 28.638967-12.959985 46.238947-34.87996 59.997931-26.559969 15.999982-63.999926 20.159977-139.198839 13.759984-8.31999 10.239988 3.039996 12.799985 7.679991 15.999981a219.037748 219.037748 0 0 0 24.479972 14.559984c-24.479972 7.199992-45.279948 12.799985-65.759925 19.359977-49.598943 15.999982-91.357895 28.799967-92.957892 100.158885s-92.319894 132.637847-169.118806 127.997852a39.999954 39.999954 0 0 1 1.599999-11.839986c13.759984-27.039969 56.799935-53.758938 17.759979-83.998903-29.759966-23.199973-56.959934 11.999986-79.198909 30.399965a293.916661 293.916661 0 0 0-90.078896 314.396637C365.770169 903.040139 465.288054 979.680051 596.805902 984.800045c-83.678904-36.639958-139.03784-82.398905-167.677807-152.797824a254.076707 254.076707 0 0 1 5.599994-213.917753c-10.559988 109.439874-11.679987 213.917753 109.278874 267.997691 148.957828 40.639953 251.196711-22.079975 279.196678-170.718803 7.839991-42.079952 16.95998-87.518899 77.278911-83.038905z"
        fill="#2577E2"></path>
    <path d="M900.482552 632.324451c-50.399942 12.479986-57.439934 50.719942-61.119929 95.039891-11.999986 148.477829-161.597814 228.316737-295.03566 158.717817 159.997816-2.399997 235.196729-84.319903 219.356747-239.997724-4.159995-40.799953 4.319995-75.678913 51.67994-83.678903 54.719937-9.599989 81.118907 17.27998 85.118902 70.239919z"
        fill="#FD9814"></path>
    <path d="M700.164783 116.331046c-26.879969 50.719942-26.879969 50.719942 9.439989 95.998889a48.959944 48.959944 0 0 1-58.559932-43.03995c-4.639995-27.999968 13.439985-45.119948 49.119943-53.599938z"
        fill="#FFFFFF"></path>
</svg>
