<?xml version="1.0" standalone="no"?><!DOCTYPE svg PUBLIC "-//W3C//DTD SVG 1.1//EN" "http://www.w3.org/Graphics/SVG/1.1/DTD/svg11.dtd"><svg t="1632581150962" class="icon" viewBox="0 0 1024 1024" version="1.1" xmlns="http://www.w3.org/2000/svg" p-id="6111" xmlns:xlink="http://www.w3.org/1999/xlink" width="200" height="200"><defs><style type="text/css"></style></defs><path d="M512 512m-512 0a512 512 0 1 0 1024 0 512 512 0 1 0-1024 0Z" fill="#FFFFFF" p-id="6112"></path><path d="M512 0.042667c282.709333 0 511.957333 229.248 511.957333 512S794.709333 1024 511.957333 1024 0 794.794667 0 512C0 229.333333 229.205333 0.085333 512 0.085333z m-103.552 256l-4.053333 0.042666c-18.517333 0.426667-97.834667 6.186667-181.76 69.674667 0 0-50.176 92.928-73.130667 202.922667A1102.677333 1102.677333 0 0 0 128 710.144s34.304 48.896 84.650667 72.96c48.384 23.168 84.650667 27.178667 115.370666 27.605333l44.970667-54.314666s-75.221333-22.442667-114.944-76.8c0 0 106.410667 74.410667 253.952 74.410666 147.541333 0 253.952-74.410667 253.952-74.410666-39.765333 54.357333-114.901333 76.8-114.901333 76.8L695.978667 810.666667c30.72-0.426667 66.986667-4.437333 115.370666-27.648 50.346667-23.978667 84.650667-72.96 84.650667-72.96s-1.706667-86.314667-21.504-181.418667c-22.954667-109.952-73.088-202.922667-73.088-202.922667-96-72.533333-185.856-69.674667-185.856-69.674666l-5.674667 9.557333c105.002667 24.789333 170.965333 85.632 170.965334 85.632-85.845333-49.408-202.624-66.56-268.842667-66.56-66.218667 0-183.04 17.152-268.842667 66.56 0 0 65.962667-60.842667 170.965334-85.674667l-5.674667-9.514666z m224.426667 247.552c36.394667 0 65.92 32.170667 65.92 71.808 0 39.68-29.525333 71.765333-65.962667 71.765333-36.437333 0-65.962667-32.128-65.962667-71.765333 0-39.637333 29.525333-71.808 65.962667-71.808z m-241.706667 0c36.437333 0 65.962667 32.170667 65.962667 71.808 0 39.68-29.525333 71.765333-65.962667 71.765333-36.437333 0-65.962667-32.128-65.962667-71.765333 0-39.637333 29.525333-71.808 65.962667-71.808z" fill="#646CF1" p-id="6113"></path></svg>