<svg t="1639584020808" class="icon" viewBox="0 0 1024 1024" version="1.1" xmlns="http://www.w3.org/2000/svg" p-id="1384" width="200" height="200"><path d="M972.8 933.4784c0 21.7088-17.6128 39.3216-38.912 39.3216H90.5216c-21.7088 0-39.3216-17.6128-39.3216-38.912V90.5216c0-21.7088 17.6128-39.3216 38.912-39.3216h843.3664c21.7088 0 39.3216 17.6128 39.3216 38.912v843.3664z" fill="#F08705" p-id="1385"></path><path d="M972.8 933.4784c0 21.7088-17.6128 39.3216-38.912 39.3216H367.0016L183.5008 786.432l114.2784-186.368 338.7392-420.6592 336.2816 346.112v407.9616z" fill="#DF6C0C" p-id="1386"></path><path d="M807.3216 566.4768h-97.0752l-102.4-174.8992c23.3472-4.9152 40.1408-25.3952 39.7312-49.152V210.944c0-27.8528-22.1184-50.3808-49.9712-50.3808H426.3936c-27.8528 0-50.3808 22.1184-50.3808 49.9712v131.8912c0 23.7568 16.384 44.2368 39.7312 49.152l-102.4 174.8992H216.6784c-27.8528 0-50.3808 22.1184-50.3808 49.9712v131.8912c0 27.8528 22.1184 50.3808 49.9712 50.3808H387.4816c27.8528 0 50.3808-22.1184 50.3808-49.9712v-131.8912c0-27.8528-22.1184-50.3808-49.9712-50.3808h-16.7936l101.5808-173.6704h79.0528l101.9904 173.6704h-16.7936c-27.8528 0-50.3808 22.1184-50.3808 49.9712v131.8912c0 27.8528 22.1184 50.3808 49.9712 50.3808H807.7312c27.8528 0 50.3808-22.1184 50.3808-49.9712v-131.8912c0-27.8528-22.1184-50.3808-49.9712-50.3808h-0.8192z" fill="#FFFFFF" p-id="1387"></path></svg>