<svg t="1647442590630" class="icon" viewBox="0 0 1024 1024" version="1.1" xmlns="http://www.w3.org/2000/svg" p-id="3795" width="200" height="200">
    <path d="M512 512m-448 0a448 448 0 1 0 896 0 448 448 0 1 0-896 0Z" fill="#00A82D" p-id="3796"></path>
    <path d="M406.4 353.408c0 5.76-0.448 15.296-6.08 21.504-6.016 5.728-15.36 6.208-20.928 6.208-31.424 0-75.04-7.904-104.768 4.288C320 304 407.904 249.92 407.36 254.56c-4.16 32.224-0.928 66.464-0.928 98.88z m94.08 369.664c0-39.68 31.648-72.128 70.752-72.128a21.12 21.12 0 0 1 20.96 21.504c0 8.096-4.192 14.784-10.72 18.624-7.104 4.352-16.928 2.304-23.264 8.096a22.4 22.4 0 0 0-8.384 16.736c0 7.168 2.784 13.824 7.456 18.624 8.384 8.576 19.52 13.376 31.68 13.376 31.616 0 57.248-26.272 57.248-58.752 0-29.12-19.104-54.912-44.256-66.4-38.144-19.552-96.544-8.416-101.024-69.696-7.008 32.416-22.432 90.24-64.256 90.24-126.336 7.68-171.84-94.624-180.672-202.976 0-23.36 13.984-39.136 31.68-41.536h94.976c16.32 0 25.6-4.288 31.68-10.016 7.904-7.648 9.76-18.624 9.76-31.52v-100.8c0-20.256 17.696-32.448 40.512-32.448 13.44 0 26.048 0.48 39.104 3.84 28.416 7.136 34.464 36.768 34.464 36.768l80.544 14.304c25.6 4.8 88.96 9.088 101.056 74.496 28.416 155.712 11.2 306.592 9.792 306.592-20.032 147.104-139.232 139.936-139.232 139.936-43.328 0-89.888-29.568-89.888-76.864z m139.68-253.6c-15.36-1.44-28.416 4.8-33.056 16.704-6.624 16.928 61.44 31.008 61.44 7.648-1.856-13.376-13.024-22.432-28.384-24.352z" fill="#FFFFFF" p-id="3797"></path>
</svg>
