<svg t="1637692331204" class="icon" viewBox="0 0 1024 1024" version="1.1" xmlns="http://www.w3.org/2000/svg" p-id="23552" width="200" height="200"><path d="M389.4784 651.3152a1102.0288 1102.0288 0 0 1-7.8336-95.744h260.7104c-1.28 33.28-3.9936 65.28-7.8336 95.744l-3.584 25.7024a976.896 976.896 0 0 1-11.136 60.5184l-5.1968 22.5536c-1.792 7.3472-3.6608 14.5408-5.5808 21.5296l-5.888 20.48a641.9456 641.9456 0 0 1-12.6464 37.504l-6.656 16.9472-6.8096 15.6672c-2.304 4.992-4.608 9.7792-6.9376 14.336l-7.0144 12.928C545.4592 930.0736 527.4624 947.2 512 947.2c-15.4624 0-33.4592-17.1264-51.072-47.7184l-7.0144-12.9536a369.4336 369.4336 0 0 1-6.912-14.336l-6.8352-15.6416-6.656-16.9472c-4.352-11.6992-8.6016-24.2176-12.6464-37.504l-5.888-20.48a819.8144 819.8144 0 0 1-5.5808-21.5296l-5.1968-22.5536a976.896 976.896 0 0 1-11.136-60.5184l-3.584-25.7024zM76.8 555.5712l217.2672-0.0256c5.2224 151.1424 37.4016 284.0576 85.0176 371.2C215.8848 875.008 94.2848 730.5216 76.8 555.52zM729.9328 555.5456H947.2c-17.4848 174.976-139.0848 319.4624-302.3104 371.2 47.616-87.1424 79.8208-220.0576 85.0432-371.2zM371.5584 99.712l7.552-2.4832c-47.6416 87.1936-79.8208 220.1088-85.0432 371.2768L76.8 468.48c17.2032-172.288 135.3472-315.008 294.7584-368.768zM460.928 124.5184C478.5408 93.9264 496.5376 76.8 512 76.8l3.9168 0.3584c14.5408 2.5856 30.976 19.328 47.1552 47.36l7.0144 12.9536c2.304 4.5312 4.6336 9.3184 6.912 14.336l6.8352 15.6416 6.656 16.9472c4.352 11.6992 8.6016 24.2432 12.6464 37.504l5.888 20.48c1.92 6.9888 3.7888 14.1824 5.5808 21.5296l5.1968 22.5536c4.1728 19.2 7.936 39.424 11.136 60.5184l3.584 25.7024c3.84 30.464 6.5536 62.4896 7.8336 95.7696H381.6704c1.28-33.28 3.9936-65.3056 7.8336-95.744l3.584-25.728a976.896 976.896 0 0 1 11.136-60.5184l5.1968-22.5536c1.792-7.3472 3.6608-14.5408 5.5808-21.5296l5.888-20.48c4.0448-13.2608 8.2944-25.8048 12.6464-37.504l6.656-16.9472 6.8096-15.6672c2.304-4.992 4.608-9.7792 6.9376-14.336l7.0144-12.928zM646.784 100.736l-1.8688-3.4816C808.1152 148.992 929.7408 293.504 947.2 468.48l-217.2672 0.0512c-5.1456-149.1712-36.5568-280.576-83.1488-367.7696z" fill="#8ab4f8" p-id="23553"></path></svg>