<svg t="1637692411538" class="icon" viewBox="0 0 1024 1024" version="1.1" xmlns="http://www.w3.org/2000/svg" p-id="25920" width="200" height="200"><path d="M512 76.8c-15.4624 0-33.4592 17.1264-51.072 47.7184l-7.0144 12.9536c-2.304 4.5312-4.6336 9.3184-6.912 14.336l-6.8352 15.6416-6.656 16.9472c-4.352 11.6992-8.6016 24.2432-12.6464 37.504l-5.888 20.48a819.456 819.456 0 0 0-5.5808 21.5296l-5.1968 22.5536c-4.1728 19.2-7.936 39.424-11.136 60.5184l-3.584 25.7024a1101.952 1101.952 0 0 0-7.8336 95.7696h164.2496a231.5008 231.5008 0 0 1 90.0352-84.0192 1043.9424 1043.9424 0 0 0-1.4336-11.7504l-3.584-25.7024a976.896 976.896 0 0 0-11.1104-60.5184l-5.1968-22.5536a819.456 819.456 0 0 0-5.5808-21.5296l-5.888-20.48a641.7664 641.7664 0 0 0-12.6464-37.504l-6.656-16.9472-6.8096-15.6672c-2.304-4.992-4.608-9.7792-6.9376-14.336l-7.0144-12.928c-16.1536-28.032-32.6144-44.7744-47.1552-47.36L512 76.8zM381.6448 555.5968H460.8v343.6288l-6.8864-12.6976a369.4336 369.4336 0 0 1-6.912-14.336l-6.8352-15.6416-6.656-16.9472c-4.352-11.6992-8.6016-24.2176-12.6464-37.504l-5.888-20.48a819.8144 819.8144 0 0 1-5.5808-21.5296l-5.1968-22.5536a976.896 976.896 0 0 1-11.136-60.5184l-3.584-25.7024a1102.0288 1102.0288 0 0 1-7.8336-95.744zM947.2 468.48h-8.2688a230.2464 230.2464 0 0 0-217.728-109.1072c-13.2352-103.552-39.5776-193.4336-74.4192-258.6368l-1.8688-3.4816C808.1152 148.992 929.7408 293.504 947.2 468.48zM371.5584 99.712l7.552-2.4832c-47.6416 87.1936-79.8208 220.1088-85.0432 371.2768L76.8 468.48c17.2032-172.288 135.3472-315.008 294.7584-368.768zM76.8 555.5712l217.2672-0.0256c5.2224 151.1424 37.4016 284.0576 85.0176 371.2C215.8848 875.008 94.2848 730.5216 76.8 555.52zM815.5392 589.568v42.9056h58.5216v-42.9312C874.0608 518.4512 815.104 460.8 742.4 460.8s-131.6608 57.6512-131.6608 128.768v42.9056h58.5216v-42.9312c0-39.5008 32.7424-71.5264 73.1392-71.5264 40.3968 0 73.1392 32.0256 73.1392 71.5264zM537.6 689.6896a28.928 28.928 0 0 1 29.2608-28.5952h351.0784c16.1536 0 29.2608 12.8 29.2608 28.5952v228.8896A28.928 28.928 0 0 1 917.9392 947.2H566.8608A28.928 28.928 0 0 1 537.6 918.5792v-228.864z m263.3216 85.8368c0-31.5904-26.2144-57.216-58.5216-57.216s-58.5216 25.6-58.5216 57.216c0 21.1968 11.776 39.68 29.2608 49.5616v64.896h58.5216V825.088a56.9856 56.9856 0 0 0 29.2608-49.5616z" fill="#8ab4f8" p-id="25921"></path></svg>