<svg t="1643431704537" class="icon" viewBox="0 0 1024 1024" version="1.1" xmlns="http://www.w3.org/2000/svg" p-id="2018" width="200" height="200">
    <path d="M734.967742 16.516129h-16.516129l198.193548 198.193548v-16.516129z" fill="#FF6668" p-id="2019"></path>
    <path d="M734.967742 33.032258l-16.516129-16.516129h-528.516129c-46.245161 0-82.580645 36.335484-82.580645 82.580645v825.806452c0 46.245161 36.335484 82.580645 82.580645 82.580645h644.129032c46.245161 0 82.580645-36.335484 82.580645-82.580645V214.709677l-16.516129-16.516129-165.16129-165.16129zM366.658065 292.335484c49.548387 0 90.83871 41.290323 90.838709 90.83871s-41.290323 90.83871-90.838709 90.838709-90.83871-41.290323-90.83871-90.838709c-1.651613-49.548387 39.63871-90.83871 90.83871-90.83871z m384.825806 445.935484c-1.651613 3.303226-4.954839 4.954839-8.258065 4.954838H293.987097c-3.303226 0-8.258065-1.651613-9.909678-4.954838-1.651613-3.303226-1.651613-8.258065 0-11.561291l97.445162-142.038709c1.651613-3.303226 4.954839-4.954839 9.909677-4.954839 3.303226 0 6.606452 1.651613 8.258065 4.954839l46.245161 74.32258 153.6-251.045161c1.651613-3.303226 6.606452-4.954839 9.909677-4.954839 3.303226 0 8.258065 3.303226 9.909678 6.606452l132.129032 318.76129c1.651613 3.303226 1.651613 6.606452 0 9.909678z" fill="#FF6668" p-id="2020"></path>
    <path d="M736.619355 14.864516h-3.303226v132.129032c0 16.516129 8.258065 52.851613 57.806452 52.851613h127.174193L736.619355 14.864516z" fill="#FFB3B4" p-id="2021"></path>
</svg>
