<svg t="1641021528848" class="icon" viewBox="0 0 1024 1024" version="1.1" xmlns="http://www.w3.org/2000/svg" p-id="1503" width="200" height="200"><path d="M513.8176 140.032c-4.96896 5.66784-4.97664 5.74976-4.41344 49.33888 0.69632 53.7856-1.77664 49.14176 26.18112 49.18784 29.54752 0.04864 35.59936 2.46016 42.4192 16.90112l3.39968 7.19616 0.55808 210.75712c0.33536 127.19616 0.18176 213.06368-0.38912 216.576-1.39776 8.576-7.41632 26.08896-10.26304 29.8624-3.3792 4.47744-16.25344 17.42848-17.32608 17.42848-0.47616 0-2.33472 1.23648-4.13184 2.74688-2.92352 2.46016-8.64768 4.56192-25.05216 9.19808-7.05536 1.99424-31.8976 1.91488-39.424-0.12544-3.0976-0.83968-9.7792-2.51904-14.848-3.73504-8.47104-2.03008-29.4144-11.09504-30.7968-13.32992-0.32256-0.51968-3.28192-2.30656-6.5792-3.97056-3.29728-1.664-6.2976-3.51488-6.66624-4.11392-0.3712-0.59904-2.36288-2.17088-4.4288-3.49184-3.77088-2.41408-18.27328-16.50176-24.50176-23.80544-15.56224-18.24-27.27424-47.7952-27.32544-68.9408-0.02816-11.33824 5.3888-31.68256 9.29536-34.92608 0.85504-0.70912 2.39616-2.944 3.42784-4.9664 1.74848-3.42528 8.2688-9.93024 15.0528-15.01696 17.10848-12.82816 57.8432-18.06848 79.05792-10.16832 21.01248 7.82592 24.08448 8.7168 27.91424 8.10496 6.21312-0.99584 6.16448-0.41472 5.80608-70.88384l-0.32-62.83264-3.584-2.99264c-10.27328-8.576-71.93088-13.42208-99.328-7.81056-22.1056 4.5312-35.94496 8.01024-39.52384 9.93792-2.19904 1.18528-5.83936 2.63168-8.09216 3.21536-3.73248 0.96768-13.9264 5.48864-23.04 10.21952-12.51072 6.49216-17.2544 9.20064-17.56672 10.03264-0.19456 0.51968-4.50048 3.74016-9.56928 7.15776-9.20064 6.20032-30.10304 25.6896-35.8656 33.44128-1.6768 2.2528-4.8896 6.4768-7.1424 9.38496-7.70816 9.95584-10.48064 14.1696-11.12832 16.90368-0.35584 1.50528-1.81248 4.12416-3.2384 5.81632-1.42336 1.69216-3.48928 5.69344-4.58752 8.88576-1.1008 3.19488-2.9824 7.3984-4.18304 9.34144-2.0736 3.35616-6.53312 16.768-9.64864 29.02784-6.11328 24.04608-4.93568 94.70976 1.7152 103.06048 0.51456 0.64512 2.0352 5.61408 3.3792 11.0464 1.344 5.42976 3.39712 11.48416 4.55936 13.45792 1.1648 1.9712 2.97984 6.21568 4.03712 9.4336 1.05728 3.21792 3.3664 8.13056 5.1328 10.91584s3.21024 5.82144 3.21024 6.75072c0 0.92672 1.92256 4.63872 4.27008 8.24576 2.35008 3.6096 6.48448 10.01728 9.18784 14.24128 11.46368 17.89952 33.87648 43.17184 50.40384 56.832 2.7264 2.2528 6.17472 5.2864 7.6672 6.74304 1.48992 1.45664 4.43904 3.68384 6.55104 4.94848 2.112 1.26464 3.84 2.6368 3.84 3.05152 0 0.41472 1.9584 1.85088 4.352 3.19488 2.3936 1.344 6.34624 3.96288 8.78336 5.82144 2.43456 1.856 5.0176 3.37664 5.73696 3.37664 0.71936 0 2.51904 1.12128 3.99616 2.49088 2.61888 2.42688 24.75264 13.89312 26.81856 13.89312 0.57088 0 2.64192 1.08288 4.60288 2.40384 1.96096 1.32352 6.79168 3.46112 10.73408 4.75136 3.9424 1.29024 9.24416 3.38432 11.77856 4.65152 2.53696 1.26976 8.75776 3.25888 13.824 4.42112a405.1456 405.1456 0 0 1 16.38144 4.14976c30.49728 8.66816 99.04384 8.19456 123.55328-0.84992 3.008-1.11104 8.69632-2.79552 12.63872-3.74272 3.9424-0.94976 9.7024-3.03616 12.8-4.63872 3.0976-1.60256 7.69792-3.63008 10.22208-4.50816 2.52672-0.87808 5.75232-2.36544 7.168-3.3024 1.41824-0.93952 4.88192-2.94144 7.69792-4.44672 14.82752-7.93088 19.02848-10.432 20.20864-12.02176 0.71168-0.96256 2.67776-2.61888 4.36736-3.68128 8.3584-5.25312 33.14688-29.38624 37.75744-36.75904 0.99072-1.58464 2.48832-3.65824 3.32288-4.608 2.432-2.75456 8.24064-11.55072 11.06176-16.74752a123.6992 123.6992 0 0 1 5.17888-8.59136c1.4208-2.09408 2.58304-4.57472 2.58304-5.5168 0-0.93952 1.6128-4.98176 3.58144-8.98048s4.3136-10.1248 5.20704-13.61664a149.20192 149.20192 0 0 1 4.03712-12.75392c4.71552-12.52864 4.68992-11.53536 5.64736-204.31616 0.50432-101.0944 1.04448-202.7008 1.20576-225.792l0.28928-41.984 2.91584-5.84704c6.69952-13.42976 13.68832-16.15616 41.536-16.20224 29.76-0.04864 27.73248 3.62496 27.7376-50.24512l0.00256-40.5504-2.9568-4.08064-2.9568-4.0832-32.5376-0.6784c-76.0448-1.58976-241.67424-0.832-243.3792 1.11104" fill="#F8FAFB" p-id="1504"></path><path d="M196.608 2.048c0 1.94816-0.68352 2.048-13.89056 2.048-15.35488 0-17.29536 0.54272-18.20416 5.08416L163.8912 12.288H148.48V20.48h-16.384v6.9376l-7.22688 0.40704c-7.54176 0.42752-9.11104 1.37984-9.14176 5.55008-0.0128 1.8688-0.90112 2.26048-6.92736 3.072-6.59456 0.88576-6.95552 1.08032-7.87712 4.20608-0.82432 2.79808-1.50272 3.32288-4.608 3.584-3.39456 0.28672-3.66336 0.56576-3.95776 4.08832-0.2944 3.55328-0.54272 3.8016-4.096 4.096-3.55328 0.29696-3.79904 0.54272-4.096 4.096-0.2944 3.55328-0.54272 3.8016-4.096 4.096-3.44064 0.28672-3.80928 0.6144-4.10112 3.64288-0.26368 2.7264-0.76032 3.328-2.74432 3.328a5.6576 5.6576 0 0 0-5.63968 5.63968c0 1.984-0.6016 2.48064-3.328 2.74432-3.02848 0.29184-3.35616 0.66048-3.64288 4.10112-0.2944 3.55328-0.54272 3.8016-4.096 4.096-3.55328 0.29696-3.79904 0.54272-4.096 4.096-0.2944 3.55328-0.54272 3.8016-4.096 4.096-3.52256 0.2944-3.8016 0.5632-4.08832 3.95776-0.26112 3.10528-0.78592 3.78368-3.584 4.608-3.12576 0.9216-3.32032 1.28256-4.20608 7.87712-0.81152 6.02624-1.2032 6.91456-3.072 6.92736-3.72224 0.02816-4.9664 1.65632-5.49888 7.18848C27.34848 128.40192 24.99072 132.096 22.016 132.096c-1.1776 0-1.536 1.30304-1.536 5.58592C20.48 143.4624 17.38496 148.48 13.82144 148.48c-1.09568 0-1.52064 1.92512-1.74592 7.936-0.28672 7.60064-0.40704 7.9488-2.85952 8.26368-4.42624 0.56832-5.12 2.69824-5.12 15.73888 0 11.40992-0.1152 12.09344-2.048 12.09344-2.04288 0-2.048 0.68352-2.048 319.488s0.00512 319.488 2.048 319.488c1.9328 0 2.048 0.68352 2.048 12.09344 0 13.04064 0.69376 15.17056 5.12 15.73888 2.45248 0.31488 2.5728 0.66304 2.85952 8.26368 0.22528 6.01088 0.65024 7.936 1.74592 7.936C17.38496 875.52 20.48 880.5376 20.48 886.31808c0 4.28288 0.3584 5.58592 1.536 5.58592 2.92096 0 5.2992 3.6864 5.95456 9.23392 0.67072 5.66272 1.7664 7.10656 5.40416 7.13472 1.8688 0.0128 2.26048 0.90112 3.072 6.92736 0.88576 6.59456 1.08032 6.95552 4.20608 7.87712 2.79808 0.82432 3.32288 1.50272 3.584 4.608 0.28672 3.39456 0.56576 3.66336 4.08832 3.95776 3.55328 0.2944 3.8016 0.54272 4.096 4.096 0.29696 3.55328 0.54272 3.79904 4.096 4.096 3.55328 0.2944 3.8016 0.54272 4.096 4.096 0.28672 3.44064 0.6144 3.80928 3.64288 4.10112 2.53952 0.24576 3.328 0.8064 3.328 2.37312 0 3.70688 1.95072 6.01088 5.09184 6.01088 2.60352 0 3.01056 0.41216 3.29216 3.328 0.29184 3.02848 0.66048 3.35616 4.10112 3.64288 3.55328 0.2944 3.8016 0.54272 4.096 4.096 0.29696 3.55328 0.54272 3.79904 4.096 4.096 3.55328 0.2944 3.8016 0.54272 4.096 4.096 0.2944 3.52256 0.5632 3.8016 3.95776 4.08832 3.10528 0.26112 3.78368 0.78592 4.608 3.584 0.9216 3.12576 1.28256 3.32032 7.87712 4.20608 6.23104 0.83712 6.912 1.15968 6.912 3.25376 0 4.07808 2.59584 5.54496 9.80224 5.54496H132.096v7.168H148.48v8.192h15.4112l0.62208 3.10784c0.9088 4.54144 2.84928 5.08416 18.20416 5.08416 13.20704 0 13.89056 0.09984 13.89056 2.048 0 2.04288 0.68352 2.048 315.904 2.048 315.22048 0 315.904-0.00512 315.904-2.048 0-1.94304 0.68352-2.048 13.37856-2.048 14.83264 0 16.78848-0.56064 17.69216-5.08416l0.62208-3.10784H875.52V1003.52h16.384v-7.168h6.58176c7.21408 0 9.80224-1.46688 9.80224-5.56032 0-2.11712 0.60928-2.40384 6.4-3.00032 6.55616-0.6784 8.96-2.26304 8.96-5.90848 0-1.3312 0.98816-1.87392 3.84-2.10944 3.61984-0.29952 3.85792-0.53504 4.15488-4.09856 0.2944-3.55328 0.54272-3.8016 4.096-4.096 3.55328-0.29696 3.79904-0.54272 4.096-4.096 0.2944-3.55328 0.54272-3.8016 4.096-4.096 3.42528-0.28416 3.81184-0.62208 4.09856-3.584 0.28672-2.96192 0.67328-3.29984 4.096-3.584 3.54816-0.29696 3.79648-0.54528 4.09344-4.09344 0.28416-3.42272 0.62208-3.80928 3.584-4.096 2.96192-0.28672 3.29984-0.67328 3.584-4.09856 0.2944-3.55328 0.54272-3.8016 4.096-4.096 3.55328-0.29696 3.79904-0.54272 4.096-4.096 0.2944-3.55328 0.54272-3.8016 4.096-4.096 3.56352-0.29696 3.79904-0.53504 4.09856-4.15488 0.23552-2.85184 0.77824-3.84 2.10944-3.84 3.64544 0 5.23008-2.40384 5.90848-8.96 0.59648-5.79072 0.8832-6.4 3.00032-6.4 3.64288 0 5.56032-2.67264 5.56032-7.75424 0-4.736 2.54208-8.62976 5.632-8.62976 1.1776 0 1.536-1.30304 1.536-5.58592 0-5.78048 3.09504-10.79808 6.65856-10.79808 1.09568 0 1.52064-1.92512 1.74592-7.936 0.28672-7.60064 0.40704-7.9488 2.85952-8.26368 4.42624-0.56832 5.12-2.69824 5.12-15.73888 0-11.40992 0.1152-12.09344 2.048-12.09344 2.04288 0 2.048-0.68352 2.048-319.488s-0.00512-319.488-2.048-319.488c-1.9328 0-2.048-0.68352-2.048-12.09344 0-13.04064-0.69376-15.17056-5.12-15.73888-2.45248-0.31488-2.5728-0.66304-2.85952-8.26368-0.22528-6.01088-0.65024-7.936-1.74592-7.936-3.56352 0-6.65856-5.0176-6.65856-10.79808 0-4.28288-0.3584-5.58592-1.536-5.58592-3.08992 0-5.632-3.89376-5.632-8.62976 0-5.07392-1.91488-7.75424-5.54496-7.75424-2.09408 0-2.41664-0.68096-3.25376-6.912-0.88576-6.59456-1.08032-6.95552-4.20608-7.87712-2.79808-0.82432-3.32288-1.50272-3.584-4.608-0.28672-3.39456-0.56576-3.66336-4.08832-3.95776-3.55328-0.2944-3.8016-0.54272-4.096-4.096-0.29696-3.55328-0.54272-3.79904-4.096-4.096-3.55328-0.2944-3.8016-0.54272-4.096-4.096-0.28672-3.44064-0.6144-3.80928-3.64288-4.10112-2.91584-0.2816-3.328-0.68864-3.328-3.29216 0-3.14112-2.304-5.09184-6.01088-5.09184-1.56672 0-2.12736-0.78848-2.37312-3.328-0.29184-3.02848-0.66048-3.35616-4.10112-3.64288-3.55328-0.2944-3.8016-0.54272-4.096-4.096-0.29696-3.55328-0.54272-3.79904-4.096-4.096-3.55328-0.2944-3.8016-0.54272-4.096-4.096-0.2944-3.52256-0.5632-3.8016-3.95776-4.08832-3.10528-0.26112-3.78368-0.78592-4.608-3.584-0.9216-3.12576-1.28256-3.32032-7.87712-4.20608-6.02624-0.81152-6.91456-1.2032-6.92736-3.072-0.03072-4.17024-1.6-5.12256-9.14176-5.55008l-7.22688-0.40704V20.48H875.52V12.288h-7.56992c-7.87968 0-8.81408-0.5376-8.81408-5.08416 0-2.59584-2.74688-3.07712-17.664-3.09504-12.36992-0.0128-13.056-0.12032-13.056-2.0608 0-2.04288-0.68352-2.048-315.904-2.048C197.29152 0 196.608 0.00512 196.608 2.048m560.5888 136.87296l32.5376 0.6784 2.9568 4.0832 2.9568 4.08064-0.00256 40.5504c-0.00512 53.87008 2.0224 50.19648-27.7376 50.24512-27.84768 0.04608-34.83648 2.77248-41.536 16.20224L723.456 260.608l-0.28928 41.984c-0.16128 23.0912-0.70144 124.6976-1.20576 225.792-0.95744 192.7808-0.93184 191.78752-5.64736 204.31616a149.20192 149.20192 0 0 0-4.03712 12.75392c-0.89344 3.49184-3.2384 9.61792-5.20704 13.61664-1.96864 3.99872-3.58144 8.04096-3.58144 8.98048 0 0.94208-1.16224 3.42272-2.58304 5.5168a123.6992 123.6992 0 0 0-5.17888 8.59136c-2.82112 5.1968-8.62976 13.99296-11.06176 16.74752-0.83456 0.94976-2.33216 3.02336-3.32288 4.608-4.61056 7.3728-29.39904 31.50592-37.75744 36.75904-1.6896 1.0624-3.65568 2.71872-4.36736 3.68128-1.18016 1.58976-5.38112 4.09088-20.20864 12.02176-2.816 1.50528-6.27968 3.5072-7.69792 4.44672-1.41568 0.93696-4.64128 2.42432-7.168 3.3024-2.52416 0.87808-7.12448 2.9056-10.22208 4.50816-3.0976 1.60256-8.8576 3.68896-12.8 4.63872-3.9424 0.9472-9.63072 2.63168-12.63872 3.74272-24.50944 9.04448-93.056 9.51808-123.55328 0.84992a405.1456 405.1456 0 0 0-16.38144-4.14976c-5.06624-1.16224-11.28704-3.15136-13.824-4.42112-2.5344-1.2672-7.83616-3.36128-11.77856-4.65152s-8.77312-3.42784-10.73408-4.75136c-1.96096-1.32096-4.032-2.40384-4.60288-2.40384-2.06592 0-24.19968-11.46624-26.81856-13.89312-1.47712-1.3696-3.2768-2.49088-3.99616-2.49088-0.71936 0-3.3024-1.52064-5.73696-3.37664-2.43712-1.85856-6.38976-4.47744-8.78336-5.82144-2.3936-1.344-4.352-2.78016-4.352-3.19488 0-0.41472-1.728-1.78688-3.84-3.05152s-5.06112-3.49184-6.55104-4.94848c-1.49248-1.45664-4.9408-4.49024-7.6672-6.74304-16.52736-13.66016-38.94016-38.93248-50.40384-56.832-2.70336-4.224-6.83776-10.63168-9.18784-14.24128-2.34752-3.60704-4.27008-7.31904-4.27008-8.24576 0-0.92928-1.44384-3.96544-3.21024-6.75072-1.7664-2.78528-4.07552-7.69792-5.1328-10.91584-1.05728-3.21792-2.87232-7.4624-4.03712-9.4336-1.16224-1.97376-3.21536-8.02816-4.55936-13.45792-1.344-5.43232-2.86464-10.40128-3.3792-11.0464-6.65088-8.35072-7.82848-79.0144-1.7152-103.06048 3.11552-12.25984 7.57504-25.67168 9.64864-29.02784 1.20064-1.94304 3.08224-6.14656 4.18304-9.34144 1.09824-3.19232 3.16416-7.1936 4.58752-8.88576 1.42592-1.69216 2.88256-4.31104 3.2384-5.81632 0.64768-2.73408 3.42016-6.94784 11.12832-16.90368 2.2528-2.90816 5.4656-7.13216 7.1424-9.38496 5.76256-7.75168 26.66496-27.24096 35.8656-33.44128 5.0688-3.4176 9.37472-6.63808 9.56928-7.15776 0.31232-0.832 5.056-3.54048 17.56672-10.03264 9.1136-4.73088 19.30752-9.25184 23.04-10.21952 2.2528-0.58368 5.89312-2.03008 8.09216-3.21536 3.57888-1.92768 17.41824-5.40672 39.52384-9.93792 27.39712-5.61152 89.05472-0.76544 99.328 7.81056l3.584 2.99264 0.32 62.83264c0.3584 70.46912 0.40704 69.888-5.80608 70.88384-3.82976 0.61184-6.90176-0.27904-27.91424-8.10496-21.21472-7.90016-61.94944-2.65984-79.05792 10.16832-6.784 5.08672-13.30432 11.59168-15.0528 15.01696-1.03168 2.0224-2.5728 4.25728-3.42784 4.9664-3.90656 3.24352-9.32352 23.58784-9.29536 34.92608 0.0512 21.1456 11.7632 50.7008 27.32544 68.9408 6.22848 7.30368 20.73088 21.39136 24.50176 23.80544 2.06592 1.32096 4.0576 2.8928 4.4288 3.49184 0.36864 0.59904 3.36896 2.44992 6.66624 4.11392s6.25664 3.45088 6.5792 3.97056c1.3824 2.23488 22.32576 11.29984 30.7968 13.32992 5.0688 1.216 11.7504 2.89536 14.848 3.73504 7.5264 2.04032 32.36864 2.11968 39.424 0.12544 16.40448-4.63616 22.12864-6.73792 25.05216-9.19808 1.79712-1.5104 3.65568-2.74688 4.13184-2.74688 1.07264 0 13.94688-12.95104 17.32608-17.42848 2.84672-3.77344 8.86528-21.2864 10.26304-29.8624 0.57088-3.51232 0.72448-89.37984 0.38912-216.576l-0.55808-210.75712-3.39968-7.19616c-6.81984-14.44096-12.87168-16.85248-42.4192-16.90112-27.95776-0.04608-25.4848 4.59776-26.18112-49.18784-0.5632-43.58912-0.55552-43.67104 4.41344-49.33888 1.70496-1.94304 167.3344-2.7008 243.3792-1.11104" fill="#0C69CC" p-id="1505"></path></svg>