<?xml version="1.0" ?><!DOCTYPE svg  PUBLIC '-//W3C//DTD SVG 1.1//EN'  'http://www.w3.org/Graphics/SVG/1.1/DTD/svg11.dtd'><svg height="512px" id="形状_1_1_" style="enable-background:new 0 0 512 512;" version="1.1" viewBox="0 0 512 512" width="512px" xml:space="preserve" xmlns="http://www.w3.org/2000/svg" xmlns:xlink="http://www.w3.org/1999/xlink"><g id="形状_1"><g><path d="M447.649,57.069H64.477c-4.211,0-8.422,3.364-8.422,8.411    v380.104c0,5.044,4.21,8.411,8.422,8.411h383.173c4.209,0,8.421-3.367,8.421-8.411V65.48    C456.07,60.434,451.858,57.069,447.649,57.069z M237.114,356.444h-49.125V231.986h49.125V356.444z M276.315,356.444l0.099-129.503    c0-18.5-12.632-30.275-29.476-30.275c-23.86,0-96.845,0-96.845,0v161.461h-49.125V154.615l171.234,0.003    c30.879,0,51.932,26.911,51.932,57.185c0,45.412,0.116,144.642,0.116,144.642H276.315z M412.559,358.127h-49.124V152.938h49.124    V358.127z" style="fill-rule:evenodd;clip-rule:evenodd;fill:#F48000;"/></g></g></svg>