<svg t="1637689590596" class="icon" viewBox="0 0 1294 1024" version="1.1" xmlns="http://www.w3.org/2000/svg" p-id="1899" width="200" height="200"><path d="M620.307692 364.307692L1073.230769 98.461538c-19.692308-59.076923-68.923077-98.461538-137.846154-98.461538H137.846154C78.769231 0 19.692308 39.384615 9.846154 98.461538l462.769231 265.846154c68.923077 29.538462 78.769231 29.538462 147.692307 0z" p-id="1900" fill="#1296db"></path><path d="M905.846154 590.769231v-19.692308c0-88.615385 68.923077-157.538462 157.538461-157.538461h19.692308v-196.923077L659.692308 452.923077c-49.230769 19.692308-78.769231 29.538462-118.153846 29.538461-29.538462 0-68.923077-9.846154-118.153847-29.538461L0 206.769231v443.076923C0 728.615385 59.076923 787.692308 137.846154 787.692308h364.307692v-29.538462c0-98.461538 78.769231-177.230769 177.230769-177.230769h226.461539z" p-id="1901" fill="#1296db"></path><path d="M1280 738.461538l-187.076923-187.076923c-39.384615-39.384615-98.461538-9.846154-98.461539 39.384616v78.769231H669.538462c-39.384615 0-59.076923 29.538462-59.076924 59.076923v88.615384c0 39.384615 29.538462 68.923077 59.076924 68.923077h324.923076v78.769231c0 49.230769 59.076923 78.769231 98.461539 39.384615L1280 817.230769c19.692308-19.692308 19.692308-59.076923 0-78.769231z" p-id="1902" fill="#1296db"></path></svg>