<?xml version="1.0" standalone="no"?><!DOCTYPE svg PUBLIC "-//W3C//DTD SVG 1.1//EN" "http://www.w3.org/Graphics/SVG/1.1/DTD/svg11.dtd"><svg t="1632494884980" class="icon" viewBox="0 0 1024 1024" version="1.1" xmlns="http://www.w3.org/2000/svg" p-id="11232" xmlns:xlink="http://www.w3.org/1999/xlink" width="200" height="200"><defs><style type="text/css"></style></defs><path d="M512 81.53088c-124.22144 0-235.9808 53.1968-314.63424 137.6256-0.36864-0.28672-0.82944-0.53248-1.21856-0.8192L186.368 231.2704C121.22112 306.7392 81.53088 404.72576 81.53088 512c0 107.80672 40.13056 206.2336 105.86112 281.86624l8.7552 11.55584c0.33792-0.26624 0.75264-0.4864 1.09568-0.73216 78.65344 84.5312 190.464 137.7792 314.75712 137.7792 237.3632 0 430.46912-193.12128 430.46912-430.46912 0-237.37344-193.12128-430.46912-430.46912-430.46912z m24.38144 273.69984c58.95168-2.1504 115.44064-11.3664 166.98368-26.52672 14.99136 47.68768 24.1152 101.64224 26.18368 158.93504h-193.16736V355.23072z m0-48.7424V132.83328c61.14816 11.94496 114.5856 68.38784 149.81632 150.15936-46.1312 13.2608-96.768 21.43232-149.81632 23.5008z m-48.76288-173.66016v173.83424c-53.17632-1.63328-103.9616-9.43616-150.40512-22.28224 35.2256-82.55488 88.91392-139.53536 150.40512-151.552z m0 222.5664v132.224H294.4512c2.06848-56.68864 10.96704-110.17728 25.69728-157.50144 51.80416 14.72512 108.4416 23.5776 167.4752 25.28256zM245.7088 487.62368h-114.176c4.85376-76.3904 32.15872-146.55488 75.53536-204.2624a470.9632 470.9632 0 0 0 66.80064 31.59552c-16.26112 52.00384-26.0864 110.34624-28.16 172.66688z m0 48.76288c2.0736 62.14656 11.84768 120.34048 28.04224 172.24704a471.36768 471.36768 0 0 0-66.85184 31.7696c-43.27936-57.63584-70.51264-127.75424-75.3664-204.01664h114.176z m48.7424 0h193.16736v131.97312c-59.00288 1.70496-115.88096 10.01984-167.66976 24.84224-14.60224-47.1808-23.4496-100.4032-25.4976-156.81536z m193.16736 180.736v174.04928c-61.63456-12.03712-115.42016-69.28896-150.67648-152.13568 46.42304-12.94336 97.50016-20.28544 150.6816-21.9136z m48.76288 174.04928v-173.8752c53.07904 2.04288 103.936 9.79456 150.0672 23.15776-35.23584 82.08896-88.77568 138.752-150.0672 150.71744z m0-222.6432v-132.1472h193.16736c-2.06848 57.05216-11.12064 110.84288-26.0096 158.40768-51.52256-15.26784-108.1856-24.0896-167.15776-26.2656z m241.90464-132.1472h114.2016c-4.92544 77.24032-32.768 148.14208-76.99456 206.19264-20.28544-11.97056-42.42432-22.528-65.87392-31.8208 16.57344-52.41344 26.5728-111.39072 28.672-174.36672z m0-48.75776c-2.0992-63.0272-12.09344-122.02496-28.6976-174.49472a462.39232 462.39232 0 0 0 65.71008-31.93856c44.31872 58.09664 72.26368 129.09568 77.16352 206.43328h-114.176z m4.608-244.1728c-15.67744 8.75008-32.2048 16.8704-49.95584 23.9104-16.50688-39.15264-37.10976-73.1648-60.66176-101.2992 41.34912 19.23584 78.8736 45.37344 110.62272 77.3888zM351.744 166.03136c-23.94112 28.60032-44.86144 63.22176-61.5168 103.18336-18.11456-6.94784-34.95936-15.04256-50.95424-23.74656C271.4112 212.57728 309.53984 185.66144 351.744 166.03648z m-112.64 612.3264a423.6544 423.6544 0 0 1 51.02592-23.74656c16.67584 40.0384 37.64736 74.70592 61.61408 103.3728-42.27584-19.69664-80.4352-46.63808-112.64-79.62624z m433.17248 79.60576c23.552-28.16 44.15488-62.19776 60.68736-101.3504a421.9392 421.9392 0 0 1 50.10432 23.79264c-31.7952 32.08704-69.37088 58.27072-110.79168 77.55776z" p-id="11233" fill="#57a2d4"></path></svg>