<svg t="1641379293830" class="icon" viewBox="0 0 1024 1024" version="1.1" xmlns="http://www.w3.org/2000/svg" p-id="28661" width="200" height="200"><path d="M784.657067 13.653333c52.770133 0 95.505067 42.734933 95.505066 95.4368v604.5696L613.717333 968.157867H200.021333a95.505067 95.505067 0 0 1-95.4368-95.4368V109.090133C104.584533 56.388267 147.319467 13.653333 200.021333 13.653333zM509.952 611.874133h-202.069333a38.161067 38.161067 0 1 0 0 76.253867h202.069333a38.229333 38.229333 0 1 0 0-76.253867z m167.048533-190.941866H307.8144a38.161067 38.161067 0 1 0 0 76.322133h369.117867a38.229333 38.229333 0 1 0 0-76.322133z m0-190.8736H307.8144a38.161067 38.161067 0 1 0 0 76.253866h369.117867a38.229333 38.229333 0 1 0 0-76.253866z" fill="#FF7B09" p-id="28662"></path><path d="M709.085867 713.659733c-52.701867 0-95.4368 42.734933-95.4368 95.4368v159.061334l266.513066-254.498134H709.085867z" fill="#FBA769" p-id="28663"></path></svg>