<svg viewBox="0 0 1024 1024" version="1.1" xmlns="http://www.w3.org/2000/svg" fill="#86909C"><path d="M168 83.2L438.4 8c46.4-11.2 97.6-11.2 148.8 0l270.4 75.2c51.2 11.2 86.4 57.6 86.4 108.8v315.2c0 206.4-126.4 395.2-321.6 470.4L512 1024l-108.8-46.4C208 904 81.6 713.6 81.6 507.2V192c0-51.2 35.2-97.6 86.4-108.8zM512 937.6l80-33.6c161.6-62.4 270.4-220.8 270.4-395.2V192c0-12.8-8-27.2-24-30.4-1.6 0-3.2 0-3.2-1.6L568 86.4C547.2 81.6 528 80 510.4 80s-35.2 1.6-52.8 6.4L188.8 160c-1.6 0-3.2 0-3.2 1.6-16 3.2-24 17.6-24 30.4v315.2c0 174.4 108.8 334.4 270.4 395.2 1.6 0 1.6 0 3.2 1.6l76.8 33.6z m152-406.4c16-16 43.2-16 59.2 0s16 43.2 0 59.2l-136 136c-16 16-43.2 16-59.2 0s-16-43.2 0-59.2l136-136z m-54.4-174.4c16-16 43.2-16 59.2 0s16 43.2 0 59.2L419.2 667.2c-16 16-43.2 16-59.2 0s-16-43.2 0-59.2l249.6-251.2z m-174.4-60.8c16-16 43.2-16 59.2 0s16 43.2 0 59.2l-136 131.2c-16 16-43.2 16-59.2 0s-16-43.2 0-59.2l136-131.2z"></path></svg>
