<svg t="1643430284627" class="icon" viewBox="0 0 1024 1024" version="1.1" xmlns="http://www.w3.org/2000/svg" p-id="1333" width="200" height="200">
    <path d="M772.954839 16.516129h-545.032258c-46.245161 0-82.580645 36.335484-82.580646 82.580645v825.806452c0 46.245161 36.335484 82.580645 82.580646 82.580645h644.129032c46.245161 0 82.580645-36.335484 82.580645-82.580645V198.193548l-181.677419-181.677419zM546.683871 561.548387h-77.625806v132.129032c0 6.606452-1.651613 13.212903-4.954839 16.516129-3.303226 3.303226-9.909677 6.606452-16.516129 6.606452-8.258065 0-14.864516-1.651613-18.167742-6.606452-3.303226-4.954839-4.954839-9.909677-4.954839-16.516129V345.187097c0-11.56129 1.651613-18.167742 6.606452-21.470968 3.303226-3.303226 13.212903-4.954839 26.425806-4.954839h90.83871c42.941935 0 75.974194 9.909677 95.793548 29.729033 21.470968 19.819355 31.380645 49.548387 31.380645 90.838709-1.651613 80.929032-44.593548 122.219355-128.825806 122.219355z" fill="#FF9843" p-id="1334"></path>
    <path d="M546.683871 358.4h-77.625806v163.509677h77.625806c29.729032 0 51.2-6.606452 62.76129-19.819354 13.212903-13.212903 18.167742-34.683871 18.167742-62.761291 0-28.077419-6.606452-49.548387-21.470968-62.76129-13.212903-13.212903-33.032258-18.167742-59.458064-18.167742z" fill="#FF9843" p-id="1335"></path>
    <path d="M772.954839 16.516129h-3.303226v132.129032c0 16.516129 8.258065 52.851613 57.806452 52.851613h127.174193L772.954839 16.516129z" fill="#FFCCA1" p-id="1336"></path>
</svg>
