<?xml version="1.0" standalone="no"?><!DOCTYPE svg PUBLIC "-//W3C//DTD SVG 1.1//EN" "http://www.w3.org/Graphics/SVG/1.1/DTD/svg11.dtd"><svg t="1632630910845" class="icon" viewBox="0 0 1024 1024" version="1.1" xmlns="http://www.w3.org/2000/svg" p-id="3912" xmlns:xlink="http://www.w3.org/1999/xlink" width="200" height="200"><defs><style type="text/css"></style></defs><path d="M446.869258 3.980212C229.04311 33.289046 55.361131 197.201413 11.940636 415.027562c-8.684099 44.14417-8.684099 142.563958 0 186.708127 20.986572 103.84735 66.578092 189.964664 141.840283 265.226855 74.176678 74.538516 160.65583 120.491873 264.865017 141.478445 44.14417 8.684099 142.563958 8.684099 186.708128 0 104.209187-20.986572 190.326502-66.939929 264.865017-141.840282C930.284099 806.897527 969.724382 743.214134 995.053004 665.780919c18.45371-56.084806 23.157597-89.373852 23.157597-157.399294s-4.703887-101.314488-23.157597-157.399293c-25.328622-77.433216-64.768905-141.116608-124.833923-200.819788C796.042403 75.624028 708.839576 28.946996 607.163251 9.045936c-35.821908-7.236749-124.833922-10.131449-160.293993-5.065724z m214.207774 108.913074c-1.085512 2.532862-30.032509 76.347703-64.04523 163.912368-34.374558 87.564664-63.321555 161.379505-64.04523 163.55053-1.44735 3.618375 18.815548 4.703887 94.077739 4.703887h96.248763l-161.741343 225.786572c-89.012014 124.472085-162.10318 224.70106-162.826855 223.25371-0.361837-1.809187 19.539223-84.669965 44.506007-184.175265 24.966784-99.867138 45.229682-182.366078 45.229682-183.45159 0-1.085512-39.078445-1.809187-87.202826-1.809187-72.729329 0-86.840989-0.723675-85.39364-5.065724 1.085512-2.532862 28.223322-95.163251 60.788693-205.161838 32.203534-110.360424 59.341343-201.543463 60.065017-203.35265 0.723675-1.44735 52.104594-2.532862 113.978799-2.532862 88.288339 0 111.807774 1.085512 110.360424 4.342049z" fill="#1296db" p-id="3913"></path></svg>