<svg t="1635162127974" class="icon" viewBox="0 0 1090 1024" version="1.1" xmlns="http://www.w3.org/2000/svg" p-id="11166" width="32" height="32"><path d="M992 64 768 64c-52.8 0-126.56 30.56-163.872 67.872L227.872 508.128c-37.344 37.344-37.344 98.432 0 135.776l280.224 280.224c37.344 37.344 98.432 37.344 135.776 0l376.224-376.224C1057.44 510.56 1088 436.8 1088 384L1088 160C1088 107.2 1044.8 64 992 64zM864 384c-53.024 0-96-42.976-96-96s42.976-96 96-96 96 42.976 96 96S917.024 384 864 384zM86.624 598.624 428.992 940.992C392.736 960.16 346.528 954.528 316.128 924.128L35.872 643.872C-1.44 606.56-1.44 545.44 35.872 508.128L412.128 131.872C449.44 94.56 523.2 64 576 64L86.624 553.376C74.176 565.824 74.176 586.176 86.624 598.624Z" p-id="11167" fill="#5f6368"></path></svg>
