<?xml version="1.0" ?><!DOCTYPE svg  PUBLIC '-//W3C//DTD SVG 1.1//EN'  'http://www.w3.org/Graphics/SVG/1.1/DTD/svg11.dtd'><svg height="256px" style="enable-background:new 0 0 256 256;" version="1.1" viewBox="0 0 256 256" width="256px" xml:space="preserve" xmlns="http://www.w3.org/2000/svg" xmlns:xlink="http://www.w3.org/1999/xlink"><g id="Background_1_" style="enable-background:new    ;"><g id="Background"><g><path d="M249.422,30.679c-2.721-4.985-5.816-9.536-9.793-13.521     c-3.992-3.998-8.709-7.587-13.703-10.314c-8.381-4.576-18.788-6.856-29.002-6.856H59.075c-10.444,0-20.542,2.345-29.265,6.949     c-5.022,2.649-9.588,6.146-13.502,10.126c-3.932,3.998-7.491,8.488-10.046,13.572c-4.289,8.533-6.274,18.477-6.274,28.65v137.429     c0,10.327,1.671,20.679,6.296,29.135c2.681,4.9,6.191,9.86,10.087,13.794c3.934,3.971,8.583,7.226,13.503,9.956     c8.465,4.7,18.842,6.413,29.201,6.413h137.849c10.568,0,20.399-1.523,28.982-6.401c4.739-2.692,9.879-6.113,13.687-9.966     c3.923-3.969,7.2-8.851,9.886-13.799c4.566-8.415,6.533-18.874,6.533-29.132V59.285     C256.012,48.978,254.031,39.124,249.422,30.679z" style="fill-rule:evenodd;clip-rule:evenodd;fill:#FE7500;"/></g></g></g><g id="Shape_1_1_" style="enable-background:new    ;"><g id="Shape_1"><g><path d="M217.911,84.078c-9.655-18.627-42.44-22.973-70.126-17.174     c-5.988,1.22-11.979,2.438-17.969,3.658c-3.815,1.007-7.632,2.014-11.448,3.021h-0.159c-0.053-0.212-0.106-0.424-0.159-0.636     c1.775-3.102,5.099-7.233,5.566-11.131c-7.897-2.173-15.796-4.347-23.693-6.52c-1.802,4.717-3.604,9.436-5.407,14.152     c-3.904,9.055-9,17.317-14.629,24.647c-1.798,2.342-3.795,5.305-6.361,6.837c-0.159,0.212-0.318,0.424-0.477,0.637     c1.222,1.401,14.108,8.696,16.219,9.223c3.286-3.498,6.573-6.997,9.859-10.495c1.007-1.272,2.014-2.545,3.021-3.816     c3.604-1.537,7.209-3.074,10.813-4.611c0.106,0.159,0.212,0.318,0.318,0.477c-4.242,8.227-11.565,19.822-18.446,26.874v0.318     c3.18,2.861,6.361,5.725,9.541,8.586h0.318c3.233-3.127,6.467-6.255,9.7-9.382c1.59-1.696,4.771-5.088,4.771-5.088l8.723-0.025     l-0.042,15.128c0,0-22.178,0.004-33.487,0.004c0,3.71,0,11.584,0,11.584l33.526,0.023c0,0-0.016,25.229-0.016,28.305     c-1.99,0.521-4.564,0.048-6.16-0.318c-10.445-2.392-8.779-9.837-7.633-20.83H90.541c-2.723,8.427-1.371,20.697,1.749,25.76     c2.574,4.177,4.355,7.073,9.859,9.541c4.231,1.897,9.584,2.068,15.743,2.067c17.705-0.002,32.192-3.092,43.888-9.063     c3.46-1.768,6.942-3.414,9.699-5.884h0.637c0.566,2.352,2.279,11.06,3.657,12.244c6.147-2.65,12.298-5.301,18.446-7.95     c-4.188-10.336-8.376-20.674-12.563-31.009c-1.419-0.248-14.701,3.996-15.425,4.93c0.901,3.498,1.802,6.997,2.703,10.495     c-3.698,2.63-8.253,5.454-13.198,6.679c-0.964-1.028-0.477-4.651-0.477-6.52c0-6.042,0-18.623,0-18.623l32.934,0.018     l-0.018-11.604l-32.822-0.006l-0.004-14.986l32.826,0.018v-11.744l-57.881,0.001c0,0-0.119,0.004-0.318-0.477     c2.85-3.86,6.033-7.255,7.951-12.085c-0.054-0.106-0.107-0.213-0.16-0.318c-3.021-0.795-6.043-1.591-9.063-2.386     c-0.106-0.265-0.212-0.529-0.317-0.795c5.512-1.749,11.025-3.498,16.537-5.247c15.936-4.939,41.851-8.156,49.135,6.679     c2.891,5.885,2.068,15.99,2.067,24.647v44.047c0.001,11.958,1.2,19.847-5.331,26.94c-5.432,5.123-11.854,5.893-16.383,5.816     c-4.53-0.076-10.588-1.846-16.608-3.181h-0.159c-0.842,2.441-3.07,10.768-3.311,13.517c4.711,1.105,10.059,1.84,15.236,2.703     c4.893,0.815,11.561,0.734,16.2,0.149c19.124-2.413,27.862-8.715,33.413-22.411C226.016,157.661,224.359,95.655,217.911,84.078z      M68.881,88.213c19.455-4.198,17.024-30.803-5.725-30.372c-1.325,0.266-2.65,0.53-3.976,0.795     c-4.906,1.74-8.9,5.29-10.654,10.177C44.334,80.498,57.299,90.712,68.881,88.213z M73,113.47     c-3.286-3.172-6.775-6.349-9.65-8.561c-2.732-2.102-9.98-8.969-13.039-9.7c-3.445,5.459-6.891,10.92-10.336,16.379     c1.908,1.166,3.816,2.332,5.724,3.498c4.66,3.151,9.606,5.997,14.013,8.721c3.556,2.446,6.472,5.065,7.931,8.294     c2.48,5.181-0.318,11.401-2.544,14.788c-6.054,9.213-14.285,16.829-21.944,24.488c-6.202,6.203-11.63,10.973-11.63,10.973     s3.308,1.908,4.792,2.862c9.319,5.759,20.375,13.444,21.467,13.198c6.845-16.373,15.538-30.553,21.308-48.182     c2.192-6.696,5.145-16.685,2.704-24.966C80.342,120.337,76.825,117.161,73,113.47z" style="fill-rule:evenodd;clip-rule:evenodd;fill:#FFFFFF;"/></g></g></g></svg>