<svg t="1672810986815" class="icon" viewBox="0 0 1024 1024" version="1.1"
    xmlns="http://www.w3.org/2000/svg" p-id="15558" width="200" height="200">
    <path
        d="M511.997586 512.000172m-302.153799 302.153798a427.31 427.31 0 1 0 604.307597-604.307597 427.31 427.31 0 1 0-604.307597 604.307597Z"
        fill="#39C68C" p-id="15559"></path>
    <path
        d="M718.55 694.46S701 648.6 629.11 587.71c-8.73-7.59-31-17.46-49-4.32-16.53 10-21.77 14.06-21.77 14.06s-11.85 4.35-22.59-11.12-105.92-132.68-93.7-145.15l31.59-30.68s10.85-10.44 15-40.51l-43.8-115.65s-19.76-20.24-47.75-10.29-78.53 45.55-78.53 45.55-20.06 16-20.11 64.4 12.68 235.54 261 412.38c43.26 32.71 70.34 21.41 70.34 21.41s64.38-19.73 82.38-63.47c7.48-20.83 6.38-29.86 6.38-29.86z"
        fill="#EAEAEA" p-id="15560"></path>
</svg>
