<svg width="32" height="32" xml:space="preserve" style="clip-rule:evenodd;fill-rule:evenodd;stroke-linejoin:round;stroke-miterlimit:1.41421" xmlns="http://www.w3.org/2000/svg"><g style="display:inline"><path d="M226.669 5288.29c-28.223 0-51.476 16.52-51.476 37 0 20.55 23.253 37.01 51.476 37.01 28.497 0 51.474-16.46 51.474-37.01 0-20.48-22.977-37-51.474-37" style="fill:url(#a)" transform="matrix(.1039 0 0 .1039 -18.203 -537.348)"/><path d="M1369.895 493.98c0-91.097-102.484-164.669-228.895-164.669h-2.887c-124.671-.8-225.185-74.372-225.185-164.446C912.928 73.59 810.582.02 684.972.02c-125.61 0-227.956 73.571-227.956 164.846 0 91.008 102.346 164.446 227.956 164.446 125.61 0 227.956 73.572 227.956 164.67v1.111c-.872 90.163-103.218 163.69-228.824 163.69h-1.01c-124.595 0-226.968 73.438-226.968 164.669 0 91.141 102.373 164.668 226.969 164.668 126.615 0 228.961-73.527 228.961-164.668 0-90.341 101.386-163.78 226.996-164.669H1141c118.867 0 215.782-65.076 227.716-147.855 1.179-5.693 1.179-11.298 1.179-16.947" style="fill:url(#b);stroke-width:4.4481" transform="matrix(.02336 0 0 .02336 0 4.459)"/></g><defs><linearGradient id="a" x1="0" y1="0" x2="1" y2="0" gradientUnits="userSpaceOnUse" gradientTransform="matrix(0 74.009 -71.6897 0 226.668 5288.29)"><stop offset="0" style="stop-color:#0053bc;stop-opacity:1"/><stop offset=".55" style="stop-color:#004cb3;stop-opacity:1"/><stop offset="1" style="stop-color:#003492;stop-opacity:1"/></linearGradient><linearGradient id="b" x1="0" y1="0" x2="1" y2="0" gradientUnits="userSpaceOnUse" gradientTransform="matrix(0 988.11428 -636.30515 0 913.013 .019)"><stop offset="0" style="stop-color:#0053bc;stop-opacity:1"/><stop offset=".55" style="stop-color:#004cb3;stop-opacity:1"/><stop offset="1" style="stop-color:#003492;stop-opacity:1"/></linearGradient></defs></svg>
