<svg t="1642788072895" class="icon" viewBox="0 0 1024 1024" version="1.1" xmlns="http://www.w3.org/2000/svg" p-id="1476" width="200" height="200">
    <path d="M526.564641 27.133015v110.702703c-219.415651 5.60749-391.258082 189.931108-383.751281 399.036213 7.054584 198.975446 173.560855 362.858859 372.355414 368.466348 208.472001 5.87882 390.444091-164.516517 397.136902-381.851969H1023.008379c-4.522169 283.540011-241.212507 508.201378-513.627981 500.24236-260.567391-7.597244-476.003533-226.108461-481.158806-486.856739C22.794989 265.722664 245.918819 32.469175 526.564641 27.133015z" opacity=".2" p-id="1477"></path>
    <path d="M381.493452 399.48843l-84.021904 98.945062 189.026674 158.45681a66.928105 66.928105 0 0 0 47.754107 20.982865 66.204557 66.204557 0 0 0 43.955484-17.184243l357.070483-446.79032-106.904081-80.223282L524.66533 519.778131z" opacity=".2" p-id="1478"></path>
    <path d="M499.431626 0v110.702703c-219.415651 5.60749-391.258082 189.931108-383.751281 399.036212 7.054584 198.975446 173.560855 362.858859 372.355414 368.466349 208.472001 5.87882 390.444091-164.516517 397.136902-381.85197H995.875363c-4.522169 283.540011-241.212507 508.201378-513.627981 500.24236-260.567391-7.597244-476.003533-226.108461-481.158805-486.856739C-4.338026 238.589648 218.785803 5.33616 499.431626 0z" fill="#617FDE" p-id="1479"></path>
    <path d="M354.360437 372.355414l-84.021905 98.945063 189.026674 158.45681A66.928105 66.928105 0 0 0 507.481087 651.101925a66.204557 66.204557 0 0 0 43.955485-17.184243l357.070482-446.790319-106.904081-80.223282L497.532314 492.645116z" fill="#FFB000" p-id="1480"></path>
</svg>
