<svg t="1645115063193" class="icon" viewBox="0 0 1024 1024" version="1.1" xmlns="http://www.w3.org/2000/svg" p-id="48504" width="200" height="200"><path d="M740.255286 409.680261L424.392553 230.50367c-21.501191-10.750595-40.442716-16.893793-59.896174-16.893793-42.490449 0-87.540563 31.739853-87.540563 100.338891v358.353181c0 70.134837 42.490449 100.338891 87.540563 100.338891 18.941525 0 38.394984-6.143197 59.896174-16.893793l315.862733-179.17659c36.347251-18.941525 57.336509-51.193312 57.336509-82.933165-2.047732-32.763719-23.548923-62.45584-57.336509-83.957031zM511.933116 605.750644l-21.501191-55.288776H398.795897l-18.941525 55.288776H332.756525l87.540563-223.714771h49.145579l87.540563 223.714771H511.933116z m113.137219 0h-42.490449V382.035873h42.490449v223.714771z" fill="#FF6A00" p-id="48505"></path><path d="M445.893744 416.335391c-2.047732 2.047732-2.047732 4.095465-4.095465 8.702863-2.047732 6.143197-2.047732 10.750595-4.095465 12.798328 0 2.047732-10.750595 27.644388-29.692121 80.885433h72.694503c-19.965392-53.752977-30.715987-81.397365-30.715987-83.445098 0-6.143197-4.095465-12.798328-4.095465-18.941526zM68.087104 219.753075c0 36.347251 28.668254 66.039372 63.99164 66.039372S196.070383 256.100326 196.070383 219.753075c0-36.347251-28.668254-66.039372-63.991639-66.039372s-63.991639 29.692121-63.99164 66.039372zM855.440237 740.389054c0 36.347251 28.668254 66.039372 63.991639 66.039372s63.991639-29.692121 63.99164-66.039372c0-36.347251-28.668254-66.039372-63.99164-66.039372s-63.991639 29.692121-63.991639 66.039372zM328.66106 91.769796c0 18.941525-16.893793 36.347251-36.347251 36.347251S255.966558 113.270987 255.966558 91.769796c0-18.941525 16.893793-36.347251 36.347251-36.347251 20.989258 0.511933 36.347251 17.405726 36.347251 36.347251z" fill="#FF6A00" p-id="48506"></path><path d="M272.860351 62.077675C349.650318 19.587227 437.190881-1.913964 526.779176 0.133768c136.686142 4.095465 262.109755 57.336509 356.305449 155.627667s142.829339 223.714772 140.781607 358.353182c-2.047732 78.8377-23.548923 155.627667-61.943907 230.369902-4.095465 12.798328-16.893793 18.941525-29.692121 18.941525-18.941525 0-34.299519-14.84606-34.299519-34.299519v-8.702863l2.047733-2.047732c34.299519-59.896175 53.241044-127.983279 53.241044-200.677782 2.047732-115.184951-40.442716-226.274437-121.328149-309.207602s-189.927186-132.078744-307.159869-134.126476c-74.742235-2.047732-149.48447 14.84606-215.523842 51.193312M149.48447 270.946386C104.434356 339.545424 78.8377 418.383124 76.789967 497.220824c-2.047732 115.184951 40.442716 226.274437 121.328149 309.207602s189.927186 132.078744 307.159869 134.126476c93.68376 2.047732 183.272056-25.596656 262.109756-78.8377 6.143197-6.143197 12.798328-8.702863 23.548923-8.702863 18.941525 0 34.299519 14.84606 34.299519 34.299519 0 8.702863-4.095465 16.893793-8.702863 21.501191-89.588295 63.991639-191.974918 98.291158-298.457007 98.291158h-12.798328C223.714772 998.403344 0 768.033442 6.143197 490.565693 8.702863 396.881933 38.394984 307.293638 87.540563 232.551403" fill="#FF6A00" p-id="48507"></path></svg>
