<svg t="1640342281268" class="icon" viewBox="0 0 1024 1024" version="1.1" xmlns="http://www.w3.org/2000/svg" p-id="5571" width="128" height="128"><path d="M384 682.666667a42.666667 42.666667 0 1 1 85.333333 0 42.666667 42.666667 0 0 1-85.333333 0z" fill="#bfbfbf" p-id="5572"></path><path d="M643.370667 385.493333L619.52 335.36a213.333333 213.333333 0 0 0-406.101333 99.072l1.493333 42.112-32.512 26.794667a149.333333 149.333333 0 0 0 81.194667 264.064l6.826666 0.597333H704a192 192 0 1 0-5.12-383.914667l-55.509333 1.408zM256 852.394667a234.666667 234.666667 0 0 1-127.786667-414.933334 298.666667 298.666667 0 0 1 568.448-138.709333L704 298.666667a277.333333 277.333333 0 1 1 0 554.666666H256v-0.938666z" fill="#bfbfbf" p-id="5573"></path><path d="M424.405333 384c-11.733333 0-22.186667 4.224-30.08 11.008a42.666667 42.666667 0 0 0-12.629333 18.474667 42.666667 42.666667 0 0 1-80.725333-27.648 128 128 0 0 1 37.717333-55.509334A131.242667 131.242667 0 0 1 424.448 298.666667C495.232 298.666667 554.666667 354.944 554.666667 426.666667a127.317333 127.317333 0 0 1-85.333334 120.917333V554.666667a42.666667 42.666667 0 1 1-85.333333 0v-42.666667a42.666667 42.666667 0 0 1 42.666667-42.666667c24.405333 0 42.666667-18.688 42.666666-42.666666 0-22.528-19.072-42.666667-44.928-42.666667z" fill="#bfbfbf" p-id="5574"></path></svg>