<?xml version="1.0" encoding="UTF-8"?>
<svg width="256px" height="256px" viewBox="0 0 256 256" version="1.1" xmlns="http://www.w3.org/2000/svg" xmlns:xlink="http://www.w3.org/1999/xlink">
    <title>白 256</title>
    <g id="白-256" stroke="none" stroke-width="1" fill="none" fill-rule="evenodd">
        <path d="M209.052698,32.9469019 C215.088364,36.174811 219.825189,40.9116365 223.053098,46.9473018 L223.623317,48.0465102 C226.483056,53.747289 228,59.9703315 228,75.4793556 L228,180.520644 L227.981105,183.40879 C227.786095,197.756101 226.085376,203.382831 223.053098,209.052698 C219.825189,215.088364 215.088364,219.825189 209.052698,223.053098 L207.95349,223.623317 C202.252711,226.483056 196.029669,228 180.520644,228 L75.4793556,228 L72.5912096,227.981105 C58.2438991,227.786095 52.6171692,226.085376 46.9473018,223.053098 C40.9116365,219.825189 36.174811,215.088364 32.9469019,209.052698 L32.3766833,207.95349 C29.6091937,202.436607 28.0992646,196.430612 28.0047297,181.992823 L28,75.4793556 C28,58.9697493 29.7189928,52.9829671 32.9469019,46.9473018 C36.174811,40.9116365 40.9116365,36.174811 46.9473018,32.9469019 L48.0465102,32.3766833 C53.5633929,29.6091937 59.5693883,28.0992646 74.0071766,28.0047297 L180.520644,28 C197.030251,28 203.017033,29.7189928 209.052698,32.9469019 Z M181.700598,50.2244157 L74.2994016,50.2244157 L71.1040875,50.2582871 C62.9108115,50.4112517 60.1857733,51.0674905 57.4272764,52.5427508 C55.2642439,53.6995532 53.6995532,55.2642439 52.5427508,57.4272764 C50.8904592,60.516793 50.2655483,63.5643388 50.2244157,74.2994016 L50.2244157,181.700598 L50.2582871,184.895913 C50.4112517,193.089189 51.0674905,195.814227 52.5427508,198.572724 C53.6995532,200.735756 55.2642439,202.300447 57.4272764,203.457249 C60.516793,205.109541 63.5643388,205.734452 74.2994016,205.775584 L180.520644,205.777778 C192.218033,205.777778 195.372867,205.168551 198.572724,203.457249 C200.735756,202.300447 202.300447,200.735756 203.457249,198.572724 C205.109541,195.483207 205.734452,192.435661 205.775584,181.700598 L205.777778,75.4793556 C205.777778,63.7819671 205.168551,60.6271329 203.457249,57.4272764 C202.300447,55.2642439 200.735756,53.6995532 198.572724,52.5427508 C195.483207,50.8904592 192.435661,50.2655483 181.700598,50.2244157 Z M86.3333333,151.333333 C96.4585537,151.333333 104.666667,159.541446 104.666667,169.666667 C104.666667,179.791887 96.4585537,188 86.3333333,188 C76.2081129,188 68,179.791887 68,169.666667 C68,159.541446 76.2081129,151.333333 86.3333333,151.333333 Z" id="wolai-logo-白" fill="#FFFFFF" fill-rule="nonzero"></path>
    </g>
</svg>