<svg t="1643431691546" class="icon" viewBox="0 0 1024 1024" version="1.1" xmlns="http://www.w3.org/2000/svg" p-id="1882" width="200" height="200">
    <path d="M858.83871 16.516129H621.006452c4.954839 0 8.258065 3.303226 8.258064 8.258065v16.516129c0 4.954839-3.303226 8.258065-8.258064 8.258064h-79.27742c-4.954839 0-8.258065-3.303226-8.258064-8.258064v-16.516129c0-4.954839 3.303226-8.258065 8.258064-8.258065H165.16129C128.825806 16.516129 99.096774 46.245161 99.096774 82.580645v858.83871c0 36.335484 29.729032 66.064516 66.064516 66.064516h693.67742c36.335484 0 66.064516-29.729032 66.064516-66.064516V82.580645c0-36.335484-29.729032-66.064516-66.064516-66.064516zM398.03871 90.83871c0-4.954839 3.303226-8.258065 8.258064-8.258065h79.27742c4.954839 0 8.258065 3.303226 8.258064 8.258065v16.516129c0 4.954839-3.303226 8.258065-8.258064 8.258064h-79.27742c-4.954839 0-8.258065-3.303226-8.258064-8.258064v-16.516129z m0 99.096774c0-4.954839 3.303226-8.258065 8.258064-8.258065h79.27742c4.954839 0 8.258065 3.303226 8.258064 8.258065v16.516129c0 4.954839-3.303226 8.258065-8.258064 8.258064h-79.27742c-4.954839 0-8.258065-3.303226-8.258064-8.258064v-16.516129z m0 115.612903c0-4.954839 3.303226-8.258065 8.258064-8.258064h79.27742c4.954839 0 8.258065 3.303226 8.258064 8.258064v16.516129c0 4.954839-3.303226 8.258065-8.258064 8.258065h-79.27742c-4.954839 0-8.258065-3.303226-8.258064-8.258065v-16.516129z m231.225806 206.451613c0 64.412903-51.2 115.612903-115.612903 115.612903s-115.612903-51.2-115.612903-115.612903v-115.612903h231.225806v115.612903z m0-256c0 4.954839-1.651613 8.258065-4.954839 8.258065h-85.883871c-3.303226 0-4.954839-3.303226-4.954838-8.258065v-16.516129c0-4.954839 1.651613-8.258065 4.954838-8.258065h85.883871c3.303226 0 4.954839 3.303226 4.954839 8.258065v16.516129z m0-115.612903c0 4.954839-3.303226 8.258065-8.258064 8.258064h-79.27742c-4.954839 0-8.258065-3.303226-8.258064-8.258064v-16.516129c0-4.954839 3.303226-8.258065 8.258064-8.258065h79.27742c4.954839 0 8.258065 3.303226 8.258064 8.258065v16.516129z" fill="#FD8D59" p-id="1883"></path>
</svg>
